<?xml version="1.0" encoding="UTF-8" standalone="no"?>
<!-- Generator: Adobe Illustrator 12.0.0, SVG Export Plug-In . SVG Version: 6.00 Build 51448)  -->

<svg
   xmlns:ns="http://ns.adobe.com/SaveForWeb/1.0/"
   xmlns:dc="http://purl.org/dc/elements/1.1/"
   xmlns:cc="http://creativecommons.org/ns#"
   xmlns:rdf="http://www.w3.org/1999/02/22-rdf-syntax-ns#"
   xmlns:svg="http://www.w3.org/2000/svg"
   xmlns="http://www.w3.org/2000/svg"
   xmlns:xlink="http://www.w3.org/1999/xlink"
   xmlns:sodipodi="http://sodipodi.sourceforge.net/DTD/sodipodi-0.dtd"
   xmlns:inkscape="http://www.inkscape.org/namespaces/inkscape"
   version="1.0"
   id="Livello_1"
   width="128"
   height="128.00018"
   viewBox="0 0 119.999 120.061"
   overflow="visible"
   enable-background="new 0 0 119.999 120.061"
   xml:space="preserve"
   sodipodi:version="0.32"
   inkscape:version="0.48.5 r10040"
   sodipodi:docname="draw-freehand-lines.svg"
   inkscape:output_extension="org.inkscape.output.svgz.inkscape"
   inkscape:export-filename="/home/osaukko/Ohjelmointi/Projektit/TextPaint64/resources/icons/16x16/draw-freehand-lines.png"
   inkscape:export-xdpi="11.249984"
   inkscape:export-ydpi="11.249984"><defs
     id="defs127"><linearGradient
       inkscape:collect="always"
       id="linearGradient3640"><stop
         style="stop-color:#ffffff;stop-opacity:1;"
         offset="0"
         id="stop3642" /><stop
         style="stop-color:#ffffff;stop-opacity:0;"
         offset="1"
         id="stop3644" /></linearGradient><radialGradient
       r="3.406888"
       fy="120.64188"
       fx="42.617531"
       cy="120.64188"
       cx="42.617531"
       gradientTransform="matrix(3.08798,2.950913,-13.94684,12.15631,1587.9923,-1484.6103)"
       gradientUnits="userSpaceOnUse"
       id="radialGradient2153"
       xlink:href="#linearGradient2257"
       inkscape:collect="always" /><radialGradient
       r="2.6143965"
       fy="58.089687"
       fx="15.727077"
       cy="58.089687"
       cx="15.727077"
       gradientTransform="matrix(3.781023,3.445195,-23.38445,26.28997,1357.7703,-1509.2163)"
       gradientUnits="userSpaceOnUse"
       id="radialGradient2150"
       xlink:href="#linearGradient2598"
       inkscape:collect="always" /><radialGradient
       r="47.746403"
       fy="64.141281"
       fx="16.217354"
       cy="95.769279"
       cx="36.675648"
       gradientTransform="matrix(0.12897,0.118122,-1.190563,1.280413,181.49339,-61.366648)"
       gradientUnits="userSpaceOnUse"
       id="radialGradient2146"
       xlink:href="#linearGradient3058"
       inkscape:collect="always" /><linearGradient
       y2="57.383999"
       x2="14.493531"
       y1="57.383999"
       x1="11.326384"
       gradientTransform="matrix(2.082744,1.883203,-0.88413,0.996848,86.646828,-25.759708)"
       gradientUnits="userSpaceOnUse"
       id="linearGradient2141"
       xlink:href="#linearGradient3058"
       inkscape:collect="always" /><radialGradient
       r="3.9750405"
       fy="6.7701697"
       fx="47.370888"
       cy="8.4953122"
       cx="49.009884"
       gradientTransform="matrix(2.706486,2.437054,-0.914692,1.023285,-28.130402,-95.387578)"
       gradientUnits="userSpaceOnUse"
       id="radialGradient2135"
       xlink:href="#linearGradient3225"
       inkscape:collect="always" /><radialGradient
       r="1.7246193"
       fy="2.6743078"
       fx="49.011971"
       cy="2.6743078"
       cx="49.011971"
       gradientTransform="matrix(3.6423293,0,0,0.44320514,-84.546404,-62.890299)"
       gradientUnits="userSpaceOnUse"
       id="radialGradient2131"
       xlink:href="#linearGradient3207"
       inkscape:collect="always" /><linearGradient
       y2="75.310318"
       x2="82.484642"
       y1="75.310318"
       x1="49.15303"
       gradientTransform="matrix(1.687832,-0.05261668,0.0315603,1.689761,-43.008682,-43.603128)"
       gradientUnits="userSpaceOnUse"
       id="linearGradient2125"
       xlink:href="#linearGradient2232"
       inkscape:collect="always" /><radialGradient
       r="1.7246193"
       fy="2.6743078"
       fx="49.011971"
       cy="2.6743078"
       cx="49.011971"
       gradientTransform="matrix(2.4977119,0,0,0.30198609,-48.802482,-67.977757)"
       gradientUnits="userSpaceOnUse"
       id="radialGradient2122"
       xlink:href="#linearGradient3207"
       inkscape:collect="always" /><radialGradient
       r="1.7246193"
       fy="2.6743078"
       fx="49.011971"
       cy="2.6743078"
       cx="49.011971"
       gradientTransform="matrix(2.4977135,0,0,0.30198604,-232.78934,-61.252786)"
       gradientUnits="userSpaceOnUse"
       id="radialGradient2119"
       xlink:href="#linearGradient3207"
       inkscape:collect="always" /><radialGradient
       r="47.595196"
       fy="7.4622769"
       fx="34.677639"
       cy="7.4622769"
       cx="34.677639"
       gradientTransform="matrix(-1.5103,0.00264127,-1.167078e-4,-0.00911022,87.0522,7.438666)"
       gradientUnits="userSpaceOnUse"
       id="radialGradient2104"
       xlink:href="#linearGradient3325"
       inkscape:collect="always" /><radialGradient
       r="47.595197"
       fy="7.4622769"
       fx="34.677639"
       cy="7.4622769"
       cx="34.677639"
       gradientTransform="matrix(0.999914,-0.00784165,5.666079e-4,0.02048306,-0.00124223,7.581357)"
       gradientUnits="userSpaceOnUse"
       id="radialGradient2102"
       xlink:href="#linearGradient3303"
       inkscape:collect="always" /><linearGradient
       id="linearGradient2232"><stop
         style="stop-color:#b4942a;stop-opacity:1;"
         offset="0"
         id="stop2234" /><stop
         style="stop-color:#e4dcc9;stop-opacity:1"
         offset="1"
         id="stop2236" /></linearGradient><linearGradient
       id="linearGradient3058"><stop
         id="stop3060"
         offset="0"
         style="stop-color:#9a7600;stop-opacity:1;" /><stop
         style="stop-color:#e3ad00;stop-opacity:1;"
         offset="0.09292036"
         id="stop3066" /><stop
         id="stop3070"
         offset="0.5043171"
         style="stop-color:#ffcd2c;stop-opacity:1;" /><stop
         id="stop3068"
         offset="0.91571385"
         style="stop-color:#e3ad00;stop-opacity:1;" /><stop
         id="stop3062"
         offset="1"
         style="stop-color:#b98d00;stop-opacity:1;" /></linearGradient><linearGradient
       id="linearGradient2257"><stop
         id="stop2259"
         offset="0"
         style="stop-color:#b4942a;stop-opacity:1;" /><stop
         id="stop2261"
         offset="1"
         style="stop-color:#e4dcc9;stop-opacity:1" /></linearGradient><linearGradient
       id="linearGradient3207"><stop
         id="stop3209"
         offset="0"
         style="stop-color:#ffffff;stop-opacity:1;" /><stop
         id="stop3211"
         offset="1"
         style="stop-color:#252525;stop-opacity:0;" /></linearGradient><linearGradient
       id="linearGradient3225"><stop
         id="stop3227"
         offset="0"
         style="stop-color:#ffffff;stop-opacity:1;" /><stop
         id="stop3229"
         offset="1"
         style="stop-color:#aeaeae;stop-opacity:1;" /></linearGradient><linearGradient
       id="linearGradient3303"><stop
         id="stop3305"
         offset="0"
         style="stop-color:#ffffff;stop-opacity:0.68345326;" /><stop
         id="stop3307"
         offset="1"
         style="stop-color:#ffffff;stop-opacity:0;" /></linearGradient><linearGradient
       id="linearGradient3325"><stop
         style="stop-color:#ffffff;stop-opacity:1;"
         offset="0"
         id="stop3327" /><stop
         style="stop-color:#ffffff;stop-opacity:0;"
         offset="1"
         id="stop3329" /></linearGradient><linearGradient
       id="linearGradient2598"><stop
         id="stop2600"
         offset="0"
         style="stop-color:#252525;stop-opacity:1;" /><stop
         style="stop-color:#252525;stop-opacity:1;"
         offset="0.5"
         id="stop2606" /><stop
         id="stop2608"
         offset="0.75"
         style="stop-color:#252525;stop-opacity:1;" /><stop
         id="stop2602"
         offset="1"
         style="stop-color:#000000;stop-opacity:1;" /></linearGradient><linearGradient
       inkscape:collect="always"
       xlink:href="#linearGradient3640"
       id="linearGradient3646"
       x1="117.53409"
       y1="0.41930452"
       x2="115.40219"
       y2="10.010333"
       gradientUnits="userSpaceOnUse"
       gradientTransform="translate(-6.4886223,6.4886223)" /><linearGradient
       id="linearGradient6310"><stop
         id="stop6312"
         offset="0"
         style="stop-color:#0057ae;stop-opacity:1;" /><stop
         id="stop6314"
         offset="1"
         style="stop-color:#0057ae;stop-opacity:1" /></linearGradient><linearGradient
       inkscape:collect="always"
       xlink:href="#linearGradient6310"
       id="linearGradient4161"
       gradientUnits="userSpaceOnUse"
       x1="75.952278"
       y1="43.22591"
       x2="75.952278"
       y2="-26.755692"
       gradientTransform="matrix(-1,0,0,1,131.40976,-11.339912)" /></defs><sodipodi:namedview
     inkscape:window-height="1353"
     inkscape:window-width="1276"
     inkscape:pageshadow="2"
     inkscape:pageopacity="0.0"
     guidetolerance="10.0"
     gridtolerance="10.0"
     objecttolerance="10.0"
     borderopacity="1.0"
     bordercolor="#666666"
     pagecolor="#ffffff"
     id="base"
     width="128px"
     height="128.00018px"
     inkscape:zoom="5.6568542"
     inkscape:cx="75.241474"
     inkscape:cy="61.823485"
     inkscape:window-x="1280"
     inkscape:window-y="0"
     inkscape:current-layer="layer1"
     showgrid="true"
     inkscape:object-bbox="false"
     inkscape:object-points="false"
     inkscape:object-nodes="true"
     inkscape:grid-points="true"
     inkscape:window-maximized="0"><inkscape:grid
       id="GridFromPre046Settings"
       type="xygrid"
       originx="0px"
       originy="0px"
       spacingx="4px"
       spacingy="4px"
       color="#0000ff"
       empcolor="#0000ff"
       opacity="0.2"
       empopacity="0.4"
       empspacing="2" /></sodipodi:namedview><metadata
     id="metadata3"><ns:sfw><ns:slices /><ns:sliceSourceBounds
         y="3.97"
         x="4"
         height="120.061"
         width="119.999"
         bottomLeftOrigin="true" /></ns:sfw><rdf:RDF><cc:Work
         rdf:about=""><dc:format>image/svg+xml</dc:format><dc:type
           rdf:resource="http://purl.org/dc/dcmitype/StillImage" /><dc:title></dc:title></cc:Work></rdf:RDF></metadata><linearGradient
     id="XMLID_11_"
     gradientUnits="userSpaceOnUse"
     x1="41.188999"
     y1="80.101601"
     x2="27.6451"
     y2="66.557701"
     gradientTransform="translate(8.7075442,3.5814057)"><stop
       offset="0.40830001"
       style="stop-color:#f0f0f0;stop-opacity:1;"
       id="stop25" /><stop
       offset="0.50628459"
       style="stop-color:#C3C3C3"
       id="stop27" /><stop
       offset="0.56008232"
       style="stop-color:#8b8b8b;stop-opacity:1;"
       id="stop29" /><stop
       id="stop12212"
       style="stop-color:#393939;stop-opacity:1;"
       offset="0.67944592" /></linearGradient><linearGradient
     id="XMLID_12_"
     gradientUnits="userSpaceOnUse"
     x1="1.3501"
     y1="103.2324"
     x2="8.1437998"
     y2="110.0261"
     gradientTransform="matrix(-1,0,0,-1,18.150444,221.94371)"><stop
       offset="0"
       style="stop-color:#EEEEEE"
       id="stop36" /><stop
       offset="1"
       style="stop-color:#BBBBBB"
       id="stop38" /></linearGradient><linearGradient
     id="XMLID_13_"
     gradientUnits="userSpaceOnUse"
     x1="-0.47799999"
     y1="105.0586"
     x2="6.3157001"
     y2="111.8523"
     gradientTransform="matrix(-1,0,0,-1,11.978544,219.42611)"><stop
       offset="0"
       style="stop-color:#BBBBBB"
       id="stop43" /><stop
       offset="1"
       style="stop-color:#555555"
       id="stop45" /></linearGradient><linearGradient
     id="XMLID_14_"
     gradientUnits="userSpaceOnUse"
     x1="67.880402"
     y1="6.4331002"
     x2="105.3924"
     y2="43.945599"
     gradientTransform="translate(6.1416442,2.5179057)"><stop
       offset="0.0947"
       style="stop-color:#666666;stop-opacity:1;"
       id="stop50" /><stop
       id="stop3330"
       style="stop-color:#b7b7b7;stop-opacity:1;"
       offset="0.40963161" /><stop
       offset="0.50530702"
       style="stop-color:#ffffff;stop-opacity:1;"
       id="stop56" /><stop
       id="stop3328"
       style="stop-color:#a3a3a3;stop-opacity:1;"
       offset="0.63043118" /><stop
       offset="0.93489999"
       style="stop-color:#646464;stop-opacity:1;"
       id="stop62" /></linearGradient><linearGradient
     id="XMLID_15_"
     gradientUnits="userSpaceOnUse"
     x1="76.919403"
     y1="43.1436"
     x2="100.6411"
     y2="19.4214"
     gradientTransform="translate(-3.0255781e-2,3.056501e-4)"><stop
       offset="0"
       style="stop-color:#aeaeae;stop-opacity:1;"
       id="stop67" /><stop
       offset="0.0602"
       style="stop-color:#b2b2b2;stop-opacity:1;"
       id="stop69" /><stop
       offset="0.18103883"
       style="stop-color:#d9d9d9;stop-opacity:1;"
       id="stop71" /><stop
       offset="0.3195"
       style="stop-color:#ffffff;stop-opacity:1;"
       id="stop73" /><stop
       offset="0.43529999"
       style="stop-color:#f4f4f4;stop-opacity:1;"
       id="stop75" /><stop
       offset="0.6028"
       style="stop-color:#D4D4D4"
       id="stop77" /><stop
       offset="0.7633"
       style="stop-color:#BBBBBB"
       id="stop79" /><stop
       offset="0.80790001"
       style="stop-color:#b9bcc1;stop-opacity:1;"
       id="stop81" /><stop
       offset="0.92970002"
       style="stop-color:#bdc0c3;stop-opacity:1;"
       id="stop83" /><stop
       offset="1"
       style="stop-color:#b5b9bb;stop-opacity:1;"
       id="stop85" /></linearGradient><linearGradient
     id="XMLID_17_"
     gradientUnits="userSpaceOnUse"
     x1="38.757801"
     y1="7.4277"
     x2="63.923302"
     y2="7.4277"
     gradientTransform="matrix(0.7071,0.7071,-0.7071,0.7071,68.728244,-21.373694)"><stop
       offset="0"
       style="stop-color:#3a3a3a;stop-opacity:1;"
       id="stop111" /><stop
       offset="1"
       style="stop-color:#888888"
       id="stop115" /></linearGradient><linearGradient
     id="XMLID_18_"
     gradientUnits="userSpaceOnUse"
     x1="-6.165"
     y1="112.5049"
     x2="11.0181"
     y2="112.5049"
     gradientTransform="translate(6.1416442,2.5179057)"><stop
       offset="0"
       style="stop-color:#BBBBBB"
       id="stop120" /><stop
       offset="1"
       style="stop-color:#000000"
       id="stop122" /></linearGradient><path
     sodipodi:nodetypes="ccc"
     id="path2276"
     d="M 47.739586,10.619833 L 47.739586,8.0001504 L 47.739586,10.619833 z "
     style="fill:#ffffff;fill-opacity:0.75688076;fill-rule:nonzero;stroke:none;stroke-width:0.5;stroke-linecap:round;stroke-linejoin:round;stroke-miterlimit:4;stroke-dasharray:none;stroke-dashoffset:4;stroke-opacity:1" /><path
     sodipodi:nodetypes="ccc"
     id="path3206"
     d="M -64.143644,-70.584972 L -64.143644,-73.204655 L -64.143644,-70.584972 z "
     style="fill:#ffffff;fill-opacity:0.75688076;fill-rule:nonzero;stroke:none;stroke-width:0.5;stroke-linecap:round;stroke-linejoin:round;stroke-miterlimit:4;stroke-dasharray:none;stroke-dashoffset:4;stroke-opacity:1" /><g
     id="layer4"
     inkscape:label="box"
     style="display:inline"
     transform="matrix(0.9362441,0,0,0.9373724,107.14371,64.941861)" /><g
     id="layer5"
     inkscape:label="zip_app"
     style="display:inline"
     transform="matrix(0.9362441,0,0,0.9373724,107.14371,64.941861)" /><path
     sodipodi:nodetypes="ccc"
     id="path3946"
     d="M 166.7261,-8.947797 L 166.7261,-11.56748 L 166.7261,-8.947797 z "
     style="fill:#ffffff;fill-opacity:0.75688076;fill-rule:nonzero;stroke:none;stroke-width:0.5;stroke-linecap:round;stroke-linejoin:round;stroke-miterlimit:4;stroke-dasharray:none;stroke-dashoffset:4;stroke-opacity:1" /><path
     sodipodi:nodetypes="ccc"
     id="path1561"
     d="M 80.007009,60.318099 L 80.007009,58.886979 L 80.007009,60.318099 z "
     style="fill:#ffffff;fill-opacity:0.75688076;fill-rule:nonzero;stroke:none;stroke-width:0.5;stroke-linecap:round;stroke-linejoin:round;stroke-miterlimit:4;stroke-dasharray:none;stroke-dashoffset:4;stroke-opacity:1" /><rect
     style="opacity:0.57786889;fill:#ffffff;fill-opacity:1;fill-rule:nonzero;stroke:none;stroke-width:3.63199997;stroke-linecap:round;stroke-linejoin:round;stroke-miterlimit:4;stroke-dasharray:none;stroke-dashoffset:4;stroke-opacity:1"
     id="rect1327"
     width="0.93624407"
     height="0"
     x="26.187258"
     y="7.2628341" /><rect
     style="opacity:0.57786889;fill:#ffffff;fill-opacity:1;fill-rule:nonzero;stroke:none;stroke-width:3.63199997;stroke-linecap:round;stroke-linejoin:round;stroke-miterlimit:4;stroke-dasharray:none;stroke-dashoffset:4;stroke-opacity:1"
     id="rect2482"
     width="0.93624407"
     height="0"
     x="-6.7000117"
     y="-18.540789" /><path
     sodipodi:nodetypes="ccc"
     id="path2494"
     d="M -155.50423,-87.171511 L -155.50423,-89.791195 L -155.50423,-87.171511 z "
     style="fill:#ffffff;fill-opacity:0.75688076;fill-rule:nonzero;stroke:none;stroke-width:0.5;stroke-linecap:round;stroke-linejoin:round;stroke-miterlimit:4;stroke-dasharray:none;stroke-dashoffset:4;stroke-opacity:1" /><g
     style="opacity:0.40163933"
     transform="matrix(-0.7330744,0,0,0.610116,-2330.2669,556.35121)"
     id="g4640" /><g
     id="g4646"
     transform="matrix(-0.7330744,0,0,0.610116,-2330.2669,556.35121)"
     style="opacity:0.40163933" /><g
     id="g4730"
     transform="matrix(0.9362441,0,0,0.610116,666.61585,563.22008)"
     style="opacity:0.40163933" /><g
     style="opacity:0.40163933"
     transform="matrix(0.9362441,0,0,0.610116,666.61585,563.22008)"
     id="g4748" /><g
     inkscape:label="Layer 1"
     id="layer1"
     transform="matrix(0.8673415,0,0,0.8673415,7.9446593,-1.6223823e-2)"><path
       style="fill:none;stroke:#6f3d86;stroke-width:8.65149593;stroke-linecap:round;stroke-linejoin:round;stroke-miterlimit:4;stroke-opacity:1;stroke-dasharray:none"
       d="m 10.270438,4.3446524 19.46587,4.325748 20.5473,4.3257476 22.71018,10.81437 28.117362,21.628742 6.36331,23.12695 -13.933362,17.967656 -16.22156,8.651496 -15.14012,-6.488622 -17.30299,-10.81437 -25.95449,8.651496 -8.6515,19.465864 2.16288,19.46587"
       id="path4081"
       inkscape:connector-curvature="0"
       sodipodi:nodetypes="ccccccccccccc" /><path
       style="fill:#ffffff;fill-opacity:0.75688076;fill-rule:nonzero;stroke:none"
       d="m 44.404177,9.7699179 0,-2.7947082 0,2.7947082 z"
       id="path2748"
       sodipodi:nodetypes="ccc"
       inkscape:connector-curvature="0" /><path
       sodipodi:nodetypes="czccccc"
       id="path3180"
       d="m 100.20383,6.9605954 c 0.99259,-1.1104758 7.51939,-0.5825041 14.46769,5.6740816 7.01644,6.317916 8.4275,12.431421 7.18413,13.82233 -0.80925,0.905362 -1.61852,1.810722 -2.4278,2.716085 -7.21732,-6.498805 -14.4346,-12.997608 -21.651898,-19.4964111 0.809274,-0.905362 1.618554,-1.810722 2.427878,-2.7160855 0,0 0,0 0,0"
       style="fill:#000000;fill-opacity:1;fill-rule:evenodd;stroke:none"
       inkscape:connector-curvature="0" /><path
       style="fill:#000000;fill-opacity:1;fill-rule:evenodd;stroke:#000000;stroke-width:0;stroke-linecap:butt;stroke-linejoin:miter;stroke-miterlimit:4;stroke-opacity:1;stroke-dasharray:none"
       d="m 12.748352,128.43628 32.75034,-15.12436 0.152325,-0.17283 -21.463151,-19.709721 -0.206514,0.23409 -11.233,34.772821 z"
       id="path3299"
       sodipodi:nodetypes="cccccc"
       inkscape:connector-curvature="0" /><path
       sodipodi:nodetypes="cccccc"
       id="path2247"
       d="m 14.371159,126.85707 30.547528,-14.08732 0.15231,-0.17281 -20.303111,-18.62542 -0.206544,0.23411 -10.190183,32.65144 z"
       style="fill:url(#radialGradient2153);fill-opacity:1;fill-rule:evenodd;stroke:#000000;stroke-width:0;stroke-linecap:butt;stroke-linejoin:miter;stroke-miterlimit:4;stroke-opacity:1;stroke-dasharray:none"
       inkscape:connector-curvature="0" /><path
       sodipodi:nodetypes="csccccsz"
       id="rect2192"
       d="m 34.040868,104.28135 c 2.66726,2.40837 4.457047,2.42357 5.410478,3.28446 0.154077,0.13912 0.283574,0.30245 0.394349,0.46796 L 112.0527,25.779595 101.57019,16.31447 29.225902,98.724346 c 0.347362,0.0905 0.672661,0.21585 0.974219,0.48813 0.871478,0.78689 1.161093,2.649304 3.840747,5.068874 z"
       style="fill:url(#radialGradient2150);fill-opacity:1;fill-rule:nonzero;stroke:none"
       inkscape:connector-curvature="0" /><path
       sodipodi:nodetypes="ccsccc"
       style="opacity:0.35348834;fill:#000000;fill-opacity:1;fill-rule:nonzero;stroke:none"
       d="m 42.217964,104.56284 -2.83099,3.21158 c 0.871453,0.85184 0.698216,2.35137 2.300104,3.79775 1.726337,1.55882 2.636879,0.73563 3.755439,1.73998 l 2.865283,-3.25058 -6.089836,-5.49873 z"
       id="path2233"
       inkscape:connector-curvature="0" /><path
       id="rect2190"
       d="M 111.67001,25.434047 39.517906,107.62591 c 0.876032,0.85603 0.836982,2.20998 2.447054,3.66378 1.735155,1.56678 2.515346,0.89254 3.639608,1.90204 l 72.186412,-82.230776 -6.12097,-5.526907 z"
       style="fill:url(#radialGradient2146);fill-opacity:1;fill-rule:nonzero;stroke:none"
       sodipodi:nodetypes="ccsccc"
       inkscape:connector-curvature="0" /><path
       sodipodi:nodetypes="cccccccccc"
       style="opacity:0.38604653;fill:#252525;fill-opacity:1;fill-rule:nonzero;stroke:none"
       d="m 31.577217,97.653219 -1.45223,1.647487 -0.0558,0.0603 c 0.723868,0.674164 0.6401,2.230244 3.038218,4.590084 l 0.133109,0.12019 0.948418,0.85635 0.133121,0.12021 c 2.614353,2.16618 4.119358,1.87279 5.07276,2.73365 l 1.532869,-1.75822 -9.350465,-8.370052 z"
       id="path2231"
       inkscape:connector-curvature="0" /><path
       sodipodi:nodetypes="ccsccccccc"
       style="opacity:0.35348834;fill:#131313;fill-opacity:1;fill-rule:nonzero;stroke:none"
       d="m 25.501241,92.135672 -1.521784,1.532749 c 0.03339,0.03007 -0.08591,0.167988 -0.05236,0.198281 0.684228,0.617838 0.667761,2.19528 1.924529,3.532836 l 0.116469,0.105146 0.5158,0.465742 0.06656,0.0601 c 1.497465,1.1577 2.753609,0.74378 3.518736,1.33049 l 1.521899,-1.726515 -6.089845,-5.498812 z"
       id="path2229"
       inkscape:connector-curvature="0" /><path
       sodipodi:nodetypes="cccccsz"
       id="rect1315"
       d="m 26.49944,97.430226 c 1.669672,1.49089 2.811652,0.97951 3.700681,1.78225 L 102.35225,17.020616 96.166022,11.43482 23.979591,93.665611 c 0.03391,0.03054 0.06733,0.0608 0.101402,0.09158 0.695072,0.627598 0.736214,2.170723 2.418447,3.673034 z"
       style="fill:url(#linearGradient2141);fill-opacity:1;fill-rule:nonzero;stroke:none"
       inkscape:connector-curvature="0" /><rect
       transform="matrix(0.7436439,0.66857591,-0.66857591,0.7436439,0,0)"
       y="-61.712902"
       x="79.198357"
       height="6.8472538"
       width="29.127392"
       id="rect2069"
       style="fill:#000000;fill-opacity:1;stroke:none" /><path
       transform="matrix(0.623553,-0.706548,-2.80565,-2.52939,69.157268,90.674192)"
       d="m 82.172836,7.4622769 a 47.495197,0.97142172 0 1 1 -94.990394,0 47.495197,0.97142172 0 1 1 94.990394,0 z"
       sodipodi:ry="0.97142172"
       sodipodi:rx="47.495197"
       sodipodi:cy="7.4622769"
       sodipodi:cx="34.677639"
       id="path3301"
       style="fill:url(#radialGradient2102);fill-opacity:1;fill-rule:nonzero;stroke:none"
       sodipodi:type="arc" /><path
       sodipodi:open="true"
       sodipodi:end="6.2517655"
       sodipodi:start="0"
       sodipodi:type="arc"
       style="fill:url(#radialGradient2104);fill-opacity:1;fill-rule:nonzero;stroke:none"
       id="path3321"
       sodipodi:cx="34.677639"
       sodipodi:cy="7.4622769"
       sodipodi:rx="71.883232"
       sodipodi:ry="0.4230493"
       d="m 106.56087,7.4622769 a 71.883232,0.4230493 0 1 1 -0.0355,-0.01329"
       transform="matrix(0.515167,-0.588073,-2.034286,-1.837523,62.770788,92.302652)" /><path
       style="fill:url(#radialGradient2135);fill-opacity:1;fill-rule:nonzero;stroke:none"
       d="M 89.465518,18.992849 C 86.483133,20.933537 83.781316,24.3768 82.29363,27.228047 L 99.597536,42.656453 106.86941,34.521258 89.465518,18.992849 z m 15.574492,13.881168 -7.271878,8.135195 6.197898,5.59082 c 2.59902,-1.621453 5.55917,-4.811336 7.27189,-8.13519 l -6.19791,-5.590825 z"
       id="path2274"
       sodipodi:nodetypes="cccccccccc"
       inkscape:connector-curvature="0" /><path
       sodipodi:nodetypes="cccc"
       id="path2265"
       d="m 26.853756,121.99175 c -3.065128,-1.24849 -7.22939,-6.3152 -9.362176,-8.14795 l -4.744458,14.58394 14.106634,-6.43599 z"
       style="fill:#6f3d86;fill-opacity:1;fill-rule:evenodd;stroke:none"
       inkscape:connector-curvature="0" /><rect
       transform="matrix(0.74312815,0.66914913,-0.66643878,0.74555976,0,0)"
       y="-62.808792"
       x="87.686371"
       height="2.7503836"
       width="12.563079"
       id="rect3205"
       style="fill:url(#radialGradient2131);fill-opacity:1;fill-rule:nonzero;stroke:none" /><path
       sodipodi:nodetypes="cszsss"
       id="path3233"
       d="m 112.51124,11.244226 c 4.48599,3.462182 7.69111,8.241466 7.86754,8.700448 0.17638,0.458986 -4.18438,-4.887722 -7.89076,-7.336067 -3.67804,-2.429651 -8.81708,-2.490464 -9.19684,-2.7862681 -0.37977,-0.295797 -2.94815,-3.0119832 -0.61824,-2.911704 2.43698,0.1048863 6.37332,1.661933 9.8383,4.3335911 z"
       style="fill:url(#linearGradient3646);fill-opacity:1;fill-rule:evenodd;stroke:none"
       inkscape:connector-curvature="0" /><path
       id="text3284"
       d="m 45.12295,106.82111 c -0.42089,0.47834 -0.655175,0.93092 -0.702919,1.35777 -0.04776,0.42693 0.09559,0.78852 0.43003,1.08487 0.333008,0.29511 0.707608,0.39248 1.123787,0.29212 0.416169,-0.10039 0.834675,-0.38969 1.25555,-0.86803 0.423288,-0.48106 0.658761,-0.93501 0.706527,-1.36189 0.04774,-0.4269 -0.09493,-0.78785 -0.427923,-1.08298 -0.334434,-0.29638 -0.709734,-0.39434 -1.125897,-0.29398 -0.416173,0.10035 -0.835894,0.39108 -1.259155,0.87212 m -0.593035,-0.52558 c 0.860881,-0.97837 1.681167,-1.61543 2.460922,-1.91118 0.779717,-0.29571 1.426813,-0.21564 1.941188,0.2402 0.512971,0.45463 0.671505,1.08843 0.475603,1.90155 -0.195924,0.81313 -0.724315,1.70888 -1.585189,2.68729 -0.85848,0.97563 -1.678764,1.61272 -2.460931,1.91119 -0.779728,0.2957 -1.426076,0.21627 -1.939064,-0.23834 -0.514383,-0.45582 -0.673638,-1.0903 -0.477709,-1.90341 0.198319,-0.81584 0.726696,-1.71159 1.58518,-2.6873 m 8.132288,-5.98346 3.477767,-0.676364 -1.438393,1.634764 -2.335879,0.46202 -0.157037,2.37123 -1.445538,1.64286 0.238304,-3.54702 -3.340105,0.65319 1.441968,-1.63883 2.195335,-0.427 0.146951,-2.235024 1.449133,-1.64696 -0.232506,3.407134 m 0.383166,-3.578364 1.510117,-1.716265 2.35036,-0.383931 0.08877,-2.388188 1.513702,-1.720336 -0.204474,3.947103 1.337009,1.184832 -1.381002,1.56953 -1.336997,-1.184869 -3.877482,0.692124 m 13.806081,-9.748965 c -0.245182,0.479247 -0.528276,0.951473 -0.849325,1.416664 -0.321052,0.46523 -0.678874,0.922048 -1.073427,1.37047 -0.891976,1.013729 -1.745961,1.686211 -2.56202,2.017484 -0.817471,0.330047 -1.479153,0.270864 -1.985052,-0.177437 -0.511589,-0.45335 -0.648585,-1.11167 -0.411031,-1.974938 0.237526,-0.863303 0.81785,-1.819471 1.740868,-2.868519 0.35633,-0.404958 0.716929,-0.774682 1.081829,-1.109118 0.367279,-0.337168 0.734555,-0.635598 1.101842,-0.895439 l 0.656825,0.582089 c -0.399539,0.25056 -0.772361,0.522355 -1.118478,0.815384 -0.34373,0.290335 -0.663875,0.604036 -0.960377,0.941027 -0.550007,0.625066 -0.883058,1.188479 -0.999166,1.690162 -0.115139,0.497783 -0.0034,0.896733 0.335302,1.196832 0.335848,0.29765 0.738662,0.364358 1.208428,0.200244 0.469746,-0.164151 0.968847,-0.546501 1.497332,-1.147147 0.143465,-0.163026 0.271221,-0.318261 0.383265,-0.465686 0.11301,-0.151364 0.207231,-0.292828 0.282571,-0.424344 l -0.616403,-0.546288 -0.842957,0.958041 -0.548383,-0.485989 2.152175,-2.445972 1.526182,1.35248 m -1.725181,-3.981151 3.726862,-4.23563 0.618519,0.548136 -2.345873,2.666119 0.590922,0.523674 2.205996,-2.507148 0.618541,0.548154 -2.205982,2.507128 0.726962,0.644228 2.424787,-2.755783 0.618543,0.548153 -3.805776,4.325313 -3.173501,-2.812344 m 5.021748,-5.707305 1.542401,-1.75296 4.124334,-0.284744 -2.176606,-1.92888 1.30924,-1.487949 3.173513,2.81233 -1.542402,1.752962 -4.124338,0.284706 2.176613,1.928916 -1.30924,1.487968 -3.173515,-2.812349 m 8.694814,-9.881778 1.542392,-1.752922 4.124328,-0.284762 -2.176605,-1.928861 1.30924,-1.487987 3.173512,2.812331 -1.542388,1.75296 -4.124349,0.284705 2.176623,1.928917 -1.309241,1.487949 -3.173512,-2.81233 m 7.482406,-8.619955 c 0.50936,-0.578858 0.989728,-0.965768 1.441156,-1.160672 0.45383,-0.197588 0.81534,-0.177108 1.084595,0.0615 0.269229,0.238601 0.334728,0.594108 0.19648,1.066521 -0.138255,0.47244 -0.463247,0.999446 -0.974988,1.581039 -0.511741,0.581614 -0.993809,0.971857 -1.446221,1.17069 -0.450007,0.196154 -0.809641,0.174934 -1.078869,-0.06366 -0.269255,-0.238605 -0.335438,-0.594746 -0.19861,-1.068429 0.13923,-0.476388 0.46473,-1.005367 0.976457,-1.586984 m 0.53512,3.463429 2.952073,-3.355072 0.42511,0.376722 -2.952078,3.355086 -0.425105,-0.376736 m -0.173773,-3.143208 c -0.200856,0.228315 -0.311652,0.444524 -0.332388,0.648637 -0.01834,0.201425 0.05469,0.374963 0.219072,0.520632 0.164377,0.145673 0.344297,0.196291 0.53977,0.151849 0.197854,-0.04715 0.397225,-0.184876 0.598079,-0.413191 0.198493,-0.225553 0.307605,-0.438418 0.327363,-0.638585 0.02214,-0.202871 -0.04899,-0.377148 -0.213363,-0.522821 -0.164382,-0.145664 -0.346209,-0.19555 -0.545487,-0.149658 -0.196871,0.04321 -0.394553,0.177584 -0.593046,0.403137 m 9.193255,-8.105073 c 0.41635,-0.361389 0.78653,-0.587174 1.11049,-0.67736 0.32496,-0.09414 0.59301,-0.04766 0.80415,0.139456 0.314584,0.278776 0.350804,0.72201 0.108664,1.329696 -0.243564,0.606437 -0.755124,1.352652 -1.534684,2.238635 -0.27501,0.312546 -0.56465,0.614529 -0.868991,0.905922 -0.3005,0.289944 -0.61207,0.565235 -0.93471,0.825883 l -0.63132,-0.559474 c 0.33479,-0.225684 0.64876,-0.465014 0.94191,-0.717931 0.29413,-0.256896 0.56436,-0.525304 0.810661,-0.805226 0.36586,-0.415815 0.6081,-0.767078 0.7267,-1.053771 0.12096,-0.289419 0.11131,-0.496281 -0.029,-0.620613 -0.14454,-0.128079 -0.35409,-0.110644 -0.62865,0.05235 -0.273591,0.159026 -0.605261,0.460031 -0.995051,0.903028 l -0.55239,0.627798 -0.52714,-0.467147 0.58109,-0.660415 c 0.34673,-0.394072 0.57311,-0.715835 0.67912,-0.965324 0.1046,-0.250717 0.091,-0.434479 -0.0408,-0.551261 -0.1219,-0.108006 -0.29861,-0.09775 -0.53023,0.03075 -0.2316,0.128516 -0.49805,0.363979 -0.79937,0.706404 -0.222366,0.25277 -0.432272,0.521428 -0.6297,0.805964 -0.197412,0.28458 -0.379459,0.580331 -0.54615,0.887276 l -0.59934,-0.531197 c 0.227257,-0.350011 0.463465,-0.687245 0.708618,-1.011745 0.245153,-0.32447 0.496876,-0.633459 0.755125,-0.926994 0.695874,-0.790845 1.283984,-1.321708 1.764384,-1.592507 0.48136,-0.274768 0.858084,-0.291603 1.130164,-0.0505 0.18563,0.164527 0.25548,0.393298 0.20951,0.6863 -0.0474,0.29174 -0.20842,0.642418 -0.48306,1.052002"
       style="font-size:12px;font-style:normal;font-variant:normal;font-weight:bold;font-stretch:normal;text-align:start;line-height:125%;writing-mode:lr-tb;text-anchor:start;fill:url(#linearGradient2125);fill-opacity:1;stroke:none;font-family:Bitstream Vera Sans"
       inkscape:connector-curvature="0" /><rect
       style="fill:url(#radialGradient2122);fill-opacity:1;fill-rule:nonzero;stroke:none"
       id="rect2956"
       width="8.6151323"
       height="1.8741798"
       x="69.306824"
       y="-67.922134"
       transform="matrix(0.69714102,0.71693402,-0.77188777,0.63575881,0,0)" /><rect
       transform="matrix(-0.75410914,-0.65674912,-0.59244092,0.8056139,0,0)"
       y="-61.197163"
       x="-114.68391"
       height="1.8741491"
       width="8.6151924"
       id="rect2961"
       style="fill:url(#radialGradient2119);fill-opacity:1;fill-rule:nonzero;stroke:none" /></g></svg>