<?xml version="1.0" encoding="UTF-8" standalone="no"?>
<!-- Created with Inkscape (http://www.inkscape.org/) -->

<svg
   xmlns:dc="http://purl.org/dc/elements/1.1/"
   xmlns:cc="http://creativecommons.org/ns#"
   xmlns:rdf="http://www.w3.org/1999/02/22-rdf-syntax-ns#"
   xmlns:svg="http://www.w3.org/2000/svg"
   xmlns="http://www.w3.org/2000/svg"
   xmlns:xlink="http://www.w3.org/1999/xlink"
   xmlns:sodipodi="http://sodipodi.sourceforge.net/DTD/sodipodi-0.dtd"
   xmlns:inkscape="http://www.inkscape.org/namespaces/inkscape"
   width="512"
   height="512"
   id="svg1901"
   sodipodi:version="0.32"
   inkscape:version="0.48.5 r10040"
   sodipodi:docname="Paint64_icon.svg"
   version="1.1"
   inkscape:export-filename="/home/osaukko/Ohjelmointi/Projektit/Paint64/icons/256x256/paint64.png"
   inkscape:export-xdpi="45"
   inkscape:export-ydpi="45">
  <sodipodi:namedview
     id="base"
     pagecolor="#ffffff"
     bordercolor="#666666"
     borderopacity="1.0"
     inkscape:pageopacity="0.0"
     inkscape:pageshadow="2"
     inkscape:zoom="0.7"
     inkscape:cx="129.86979"
     inkscape:cy="277.29741"
     inkscape:document-units="px"
     inkscape:current-layer="layer1"
     inkscape:window-width="1276"
     inkscape:window-height="1353"
     inkscape:window-x="0"
     inkscape:window-y="0"
     showgrid="false"
     inkscape:window-maximized="0" />
  <defs
     id="defs1903">
    <linearGradient
       id="linearGradient4054">
      <stop
         style="stop-color:#000000;stop-opacity:1;"
         offset="0"
         id="stop4056" />
      <stop
         style="stop-color:#000000;stop-opacity:0"
         offset="1"
         id="stop4058" />
    </linearGradient>
    <linearGradient
       id="linearGradient3841">
      <stop
         style="stop-color:#ffd78d;stop-opacity:1;"
         offset="0"
         id="stop3843" />
      <stop
         style="stop-color:#e5a249;stop-opacity:1;"
         offset="1"
         id="stop3845" />
    </linearGradient>
    <linearGradient
       id="linearGradient3823">
      <stop
         id="stop3837"
         offset="0"
         style="stop-color:#2a76f3;stop-opacity:1;" />
      <stop
         id="stop3831"
         offset="0.33333334"
         style="stop-color:#4f80c9;stop-opacity:1;" />
      <stop
         style="stop-color:#02008f;stop-opacity:1;"
         offset="1"
         id="stop3827" />
    </linearGradient>
    <linearGradient
       id="linearGradient3813">
      <stop
         style="stop-color:#f3e3d0;stop-opacity:1;"
         offset="0"
         id="stop3815" />
      <stop
         style="stop-color:#eeaf71;stop-opacity:1;"
         offset="1"
         id="stop3817" />
    </linearGradient>
    <linearGradient
       id="linearGradient3803">
      <stop
         style="stop-color:#616161;stop-opacity:1;"
         offset="0"
         id="stop3805" />
      <stop
         style="stop-color:#000000;stop-opacity:1;"
         offset="1"
         id="stop3807" />
    </linearGradient>
    <linearGradient
       inkscape:collect="always"
       xlink:href="#linearGradient3841-6"
       id="linearGradient3849-7"
       x1="644.78906"
       y1="98.141121"
       x2="686.30725"
       y2="104.86848"
       gradientUnits="userSpaceOnUse" />
    <linearGradient
       id="linearGradient3841-6">
      <stop
         style="stop-color:#ffd78d;stop-opacity:1;"
         offset="0"
         id="stop3843-9" />
      <stop
         style="stop-color:#e5a249;stop-opacity:1;"
         offset="1"
         id="stop3845-6" />
    </linearGradient>
    <radialGradient
       inkscape:collect="always"
       xlink:href="#linearGradient3813"
       id="radialGradient3892"
       gradientUnits="userSpaceOnUse"
       gradientTransform="matrix(-0.84609194,2.1976807,-0.55124889,-0.21222701,1085.4469,-725.57131)"
       cx="493.78473"
       cy="302.95355"
       fx="493.78473"
       fy="302.95355"
       r="25.122465" />
    <radialGradient
       inkscape:collect="always"
       xlink:href="#linearGradient3803"
       id="radialGradient3894"
       gradientUnits="userSpaceOnUse"
       gradientTransform="matrix(-1.2578378,1.9123592,-0.49619595,-0.32636862,1262.9627,-496.99043)"
       cx="486.0451"
       cy="327.86057"
       fx="486.0451"
       fy="327.86057"
       r="12.116755" />
    <linearGradient
       inkscape:collect="always"
       xlink:href="#linearGradient3823"
       id="linearGradient3896"
       gradientUnits="userSpaceOnUse"
       x1="558.87195"
       y1="169.56445"
       x2="601.28827"
       y2="196.08096" />
    <linearGradient
       inkscape:collect="always"
       xlink:href="#linearGradient3841"
       id="linearGradient3898"
       gradientUnits="userSpaceOnUse"
       x1="644.78906"
       y1="98.141121"
       x2="686.30725"
       y2="104.86848" />
    <filter
       style="color-interpolation-filters:sRGB;"
       inkscape:label="Drop Shadow"
       id="filter4032">
      <feFlood
         flood-opacity="0.5"
         flood-color="rgb(0,0,0)"
         result="flood"
         id="feFlood4034" />
      <feComposite
         in="flood"
         in2="SourceGraphic"
         operator="in"
         result="composite1"
         id="feComposite4036" />
      <feGaussianBlur
         in="composite"
         stdDeviation="8"
         result="blur"
         id="feGaussianBlur4038" />
      <feOffset
         dx="8"
         dy="8"
         result="offset"
         id="feOffset4040" />
      <feComposite
         in="SourceGraphic"
         in2="offset"
         operator="over"
         result="composite2"
         id="feComposite4042" />
    </filter>
    <linearGradient
       inkscape:collect="always"
       xlink:href="#linearGradient4054"
       id="linearGradient4060"
       x1="214.5"
       y1="302.71429"
       x2="387.64285"
       y2="247.35713"
       gradientUnits="userSpaceOnUse"
       gradientTransform="translate(16.722871,522.86584)" />
    <filter
       inkscape:collect="always"
       id="filter4074"
       x="-0.06847485"
       width="1.1369497"
       y="-0.1605283"
       height="1.3210566">
      <feGaussianBlur
         inkscape:collect="always"
         stdDeviation="5.0642858"
         id="feGaussianBlur4076" />
    </filter>
  </defs>
  <metadata
     id="metadata1906">
    <rdf:RDF>
      <cc:Work
         rdf:about="">
        <dc:format>image/svg+xml</dc:format>
        <dc:type
           rdf:resource="http://purl.org/dc/dcmitype/StillImage" />
        <dc:title></dc:title>
      </cc:Work>
    </rdf:RDF>
  </metadata>
  <g
     transform="translate(0,-540.36218)"
     id="layer1"
     inkscape:groupmode="layer"
     inkscape:label="Taso 1">
    <g
       transform="matrix(1.3147623,0,0,1.3147623,440.60736,-247.91171)"
       id="g3006"
       style="filter:url(#filter4032)">
      <path
         inkscape:connector-curvature="0"
         id="path3022"
         d="m -247.56626,842.94275 c 0,0 -58.50996,-77.4639 -58.50996,-77.4639 0,0 91.80389,-72.88672 91.80389,-72.88672 0,0 74.87128,-59.44326 74.87128,-59.44326 0,0 70.36622,41.87438 70.36622,41.87438 0,0 94.288637,56.11042 94.288637,56.11042 0,0 -80.698249,96.31726 -80.698249,96.31726 0,0 -107.190118,127.9366 -107.190118,127.9366 0,0 -84.9317,-112.44478 -84.9317,-112.44478 0,0 0,0 0,0"
         style="fill:#6b5db4" />
      <path
         inkscape:connector-curvature="0"
         id="path3020"
         d="m -247.56626,842.94275 c 0,0 -58.50996,-77.4639 -58.50996,-77.4639 0,0 91.80389,-72.88672 91.80389,-72.88672 0,0 74.87128,-59.44326 74.87128,-59.44326 0,0 70.36622,41.87438 70.36622,41.87438 0,0 94.288637,56.11042 94.288637,56.11042 0,0 -80.698249,96.31726 -80.698249,96.31726 0,0 -107.190118,127.9366 -107.190118,127.9366 0,0 -84.9317,-112.44478 -84.9317,-112.44478 0,0 0,0 0,0 m 128.12643,-21.16203 c 0,0 -9.78716,-9.2547 -9.78716,-9.2547 0,0 -10.4015,10.94083 -10.4015,10.94083 0,0 -10.70354,11.25853 -10.70354,11.25853 0,0 9.64706,9.9813 9.64706,9.9813 0,0 10.04842,10.39658 10.04842,10.39658 0,0 10.84881,-12.02354 10.84881,-12.02354 0,0 10.53031,-11.67056 10.53031,-11.67056 0,0 -10.1824,-9.62844 -10.1824,-9.62844 0,0 0,0 0,0 m 23.520663,-25.38151 c 0,0 -9.913943,-8.48007 -9.913943,-8.48007 0,0 -9.73821,10.24315 -9.73821,10.24315 0,0 -10.01162,10.53074 -10.01162,10.53074 0,0 9.80887,9.13191 9.80887,9.13191 0,0 10.20294,9.49876 10.20294,9.49876 0,0 10.120018,-11.21584 10.120018,-11.21584 0,0 9.832858,-10.89758 9.832858,-10.89758 0,0 -10.300913,-8.81107 -10.300913,-8.81107 0,0 0,0 0,0 m 22.026583,-23.76923 c 0,0 -10.005626,-7.78309 -10.005626,-7.78309 0,0 -9.136401,9.61013 -9.136401,9.61013 0,0 -9.384699,9.87132 -9.384699,9.87132 0,0 9.929933,8.36973 9.929933,8.36973 0,0 10.31558,8.69478 10.31558,8.69478 0,0 9.462282,-10.48688 9.462282,-10.48688 0,0 9.202469,-10.19893 9.202469,-10.19893 0,0 -10.383538,-8.07706 -10.383538,-8.07706 0,0 0,0 0,0 m 20.670479,-22.30583 c 0,0 -10.067835,-7.15409 -10.067835,-7.15409 0,0 -8.588702,9.03403 -8.588702,9.03403 0,0 -8.814876,9.27194 -8.814876,9.27194 0,0 10.016821,7.68364 10.016821,7.68364 0,0 10.39331,7.97243 10.39331,7.97243 0,0 8.866643,-9.82674 8.866643,-9.82674 0,0 8.630816,-9.56538 8.630816,-9.56538 0,0 -10.436177,-7.41583 -10.436177,-7.41583 0,0 0,0 0,0 m -113.460675,75.40224 c 0,0 -8.76084,-9.21616 -8.76084,-9.21616 0,0 -10.9245,10.86026 -10.9245,10.86026 0,0 -11.2377,11.17161 -11.2377,11.17161 0,0 8.57127,9.92887 8.57127,9.92887 0,0 8.92316,10.33649 8.92316,10.33649 0,0 11.43505,-11.92149 11.43505,-11.92149 0,0 11.10365,-11.57601 11.10365,-11.57601 0,0 -9.11009,-9.58357 -9.11009,-9.58357 0,0 0,0 0,0 m 24.76527,-25.20047 c 0,0 -8.94185,-8.45538 -8.94185,-8.45538 0,0 -10.2361,10.17591 -10.2361,10.17591 0,0 -10.51997,10.45811 -10.51997,10.45811 0,0 8.79105,9.09563 8.79105,9.09563 0,0 9.1397,9.45637 9.1397,9.45637 0,0 10.67645,-11.13062 10.67645,-11.13062 0,0 10.37726,-10.81871 10.37726,-10.81871 0,0 -9.28654,-8.78131 -9.28654,-8.78131 0,0 0,0 0,0 m 84.852927,-86.34409 c 0,0 -9.329796,-6.07954 -9.329796,-6.07954 0,0 -8.043698,7.9964 -8.043698,7.9964 0,0 -8.240976,8.19251 -8.240976,8.19251 0,0 9.283132,6.50896 9.283132,6.50896 0,0 9.60725,6.73623 9.60725,6.73623 0,0 8.288368,-8.64096 8.288368,-8.64096 0,0 8.0832,-8.42706 8.0832,-8.42706 0,0 -9.64748,-6.28654 -9.64748,-6.28654 0,0 0,0 0,0 m -129.745147,90.37156 c 0,0 -8.01298,-8.42944 -8.01298,-8.42944 0,0 -10.70772,10.10895 -10.70772,10.10895 0,0 -11.00107,10.38589 -11.00107,10.38589 0,0 7.81981,9.0584 7.81981,9.0584 0,0 8.12605,9.41312 8.12605,9.41312 0,0 11.20204,-11.04614 11.20204,-11.04614 0,0 10.89195,-10.74038 10.89195,-10.74038 0,0 -8.31808,-8.7504 -8.31808,-8.7504 0,0 0,0 0,0 m 24.33285,-23.46833 c 0,0 -8.20149,-7.7553 -8.20149,-7.7553 0,0 -10.06101,9.4984 -10.06101,9.4984 0,0 -10.32801,9.75047 -10.32801,9.75047 0,0 8.04412,8.32283 8.04412,8.32283 0,0 8.3489,8.63817 8.3489,8.63817 0,0 10.49132,-10.34531 10.49132,-10.34531 0,0 10.21009,-10.06799 10.21009,-10.06799 0,0 -8.50392,-8.04127 -8.50392,-8.04127 0,0 0,0 0,0 m -42.76189,4.08148 c 0,0 -7.35695,-7.73931 -7.35695,-7.73931 0,0 -10.48835,9.44259 -10.48835,9.44259 0,0 -10.76346,9.69027 -10.76346,9.69027 0,0 7.16302,8.29757 7.16302,8.29757 0,0 7.43116,8.60817 7.43116,8.60817 0,0 10.96505,-10.27508 10.96505,-10.27508 0,0 10.67458,-10.00287 10.67458,-10.00287 0,0 -7.62505,-8.02134 -7.62505,-8.02134 0,0 0,0 0,0 m 23.88532,-21.93109 c 0,0 -7.54943,-7.13871 -7.54943,-7.13871 0,0 -9.88014,8.89502 -9.88014,8.89502 0,0 -10.13154,9.12135 -10.13154,9.12135 0,0 7.3885,7.64449 7.3885,7.64449 0,0 7.65647,7.92175 7.65647,7.92175 0,0 10.29846,-9.65042 10.29846,-9.65042 0,0 10.03389,-9.4025 10.03389,-9.4025 0,0 -7.81621,-7.39098 -7.81621,-7.39098 0,0 0,0 0,0 m 43.74635,-40.16717 c 0,0 -7.8376,-6.09664 -7.8376,-6.09664 0,0 -8.81232,7.93367 -8.81232,7.93367 0,0 -9.02386,8.12412 -9.02386,8.12412 0,0 7.72948,6.51501 7.72948,6.51501 0,0 7.99342,6.73748 7.99342,6.73748 0,0 9.13546,-8.56061 9.13546,-8.56061 0,0 8.91417,-8.35324 8.91417,-8.35324 0,0 -8.09875,-6.29979 -8.09875,-6.29979 0,0 0,0 0,0 m 20.08087,-18.43791 c 0,0 -7.94194,-5.64346 -7.94194,-5.64346 0,0 -8.34219,7.51042 -8.34219,7.51042 0,0 -8.53694,7.68574 -8.53694,7.68574 0,0 7.85494,6.02531 7.85494,6.02531 0,0 8.11554,6.22521 8.11554,6.22521 0,0 8.62649,-8.08366 8.62649,-8.08366 0,0 8.42333,-7.89329 8.42333,-7.89329 0,0 -8.19923,-5.82627 -8.19923,-5.82627 0,0 0,0 0,0 m 19.013078,-17.45749 c 0,0 -8.024508,-5.22898 -8.024508,-5.22898 0,0 -7.90871,7.12016 -7.90871,7.12016 0,0 -8.08838,7.28191 -8.08838,7.28191 0,0 7.95578,5.57827 7.95578,5.57827 0,0 8.21243,5.75823 8.21243,5.75823 0,0 8.158894,-7.64549 8.158894,-7.64549 0,0 7.97194,-7.47031 7.97194,-7.47031 0,0 -8.277446,-5.39379 -8.277446,-5.39379 0,0 0,0 0,0 m -123.662898,80.1761 c 0,0 -6.77831,-7.13059 -6.77831,-7.13059 0,0 -10.26907,8.84839 -10.26907,8.84839 0,0 -10.52746,9.07103 -10.52746,9.07103 0,0 6.58564,7.62873 6.58564,7.62873 0,0 6.82173,7.90223 6.82173,7.90223 0,0 10.72755,-9.59184 10.72755,-9.59184 0,0 10.45507,-9.3482 10.45507,-9.3482 0,0 -7.01515,-7.37975 -7.01515,-7.37975 0,0 0,0 0,0 m 23.43033,-20.55959 c 0,0 -6.97215,-6.59283 -6.97215,-6.59283 0,0 -9.69641,8.35496 -9.69641,8.35496 0,0 -9.93337,8.55913 -9.93337,8.55913 0,0 6.80988,7.04582 6.80988,7.04582 0,0 7.04675,7.2909 7.04675,7.2909 0,0 10.10155,-9.03212 10.10155,-9.03212 0,0 9.85243,-8.80936 9.85243,-8.80936 0,0 -7.20868,-6.8165 -7.20868,-6.8165 0,0 0,0 0,0 m 43.05986,-37.78406 c 0,0 -7.26983,-5.65499 -7.26983,-5.65499 0,0 -8.68599,7.48432 -8.68599,7.48432 0,0 -8.88667,7.65724 -8.88667,7.65724 0,0 7.15675,6.03227 7.15675,6.03227 0,0 7.39168,6.2303 7.39168,6.2303 0,0 9.00341,-8.05023 9.00341,-8.05023 0,0 8.79356,-7.8626 8.79356,-7.8626 0,0 -7.50291,-5.83631 -7.50291,-5.83631 0,0 0,0 0,0 m 19.82963,-17.40005 c 0,0 -7.38137,-5.24513 -7.38137,-5.24513 0,0 -8.23899,7.09917 -8.23899,7.09917 0,0 -8.42432,7.25885 -8.42432,7.25885 0,0 7.28818,5.59056 7.28818,5.59056 0,0 7.52088,5.76906 7.52088,5.76906 0,0 8.5203,-7.61827 8.5203,-7.61827 0,0 8.32703,-7.44545 8.32703,-7.44545 0,0 -7.61171,-5.40879 -7.61171,-5.40879 0,0 0,0 0,0 m 18.8124,-16.50746 c 0,0 -7.47227,-4.86913 -7.47227,-4.86913 0,0 -7.82564,6.743 -7.82564,6.743 0,0 -7.99712,6.89075 -7.99712,6.89075 0,0 7.39641,5.18606 7.39641,5.18606 0,0 7.62627,5.34724 7.62627,5.34724 0,0 8.07507,-7.22017 8.07507,-7.22017 0,0 7.89666,-7.06064 7.89666,-7.06064 0,0 -7.69938,-5.01711 -7.69938,-5.01711 0,0 0,0 0,0 m -120.75183,75.81976 c 0,0 -6.26534,-6.59097 -6.26534,-6.59097 0,0 -10.05184,8.31595 -10.05184,8.31595 0,0 -10.29483,8.51699 -10.29483,8.51699 0,0 6.07535,7.03762 6.07535,7.03762 0,0 6.28432,7.27969 6.28432,7.27969 0,0 10.49195,-8.98314 10.49195,-8.98314 0,0 10.23599,-8.76398 10.23599,-8.76398 0,0 -6.4756,-6.81216 -6.4756,-6.81216 0,0 0,0 0,0 m 22.97354,-19.32997 c 0,0 -6.45864,-6.10726 -6.45864,-6.10726 0,0 -9.51199,7.86934 -9.51199,7.86934 0,0 -9.73557,8.05431 -9.73557,8.05431 0,0 6.29666,6.51483 6.29666,6.51483 0,0 6.50706,6.73251 6.50706,6.73251 0,0 9.90332,-8.47916 9.90332,-8.47916 0,0 9.66848,-8.27809 9.66848,-8.27809 0,0 -6.66932,-6.30648 -6.66932,-6.30648 0,0 0,0 0,0 m 61.91701,-52.09708 c 0,0 -6.87813,-4.88752 -6.87813,-4.88752 0,0 -8.12984,6.72588 -8.12984,6.72588 0,0 -8.30627,6.87183 -8.30627,6.87183 0,0 6.78061,5.20123 6.78061,5.20123 0,0 6.98926,5.36127 6.98926,5.36127 0,0 8.40673,-7.19777 8.40673,-7.19777 0,0 8.22278,-7.0403 8.22278,-7.0403 0,0 -7.08514,-5.03462 -7.08514,-5.03462 0,0 0,0 0,0 m 18.59366,-15.64474 c 0,0 -6.97515,-4.54518 -6.97515,-4.54518 0,0 -7.73557,6.39968 -7.73557,6.39968 0,0 -7.89925,6.53511 -7.89925,6.53511 0,0 6.89402,4.83382 6.89402,4.83382 0,0 7.10071,4.97873 7.10071,4.97873 0,0 7.98266,-6.8347 7.98266,-6.8347 0,0 7.81239,-6.68891 7.81239,-6.68891 0,0 -7.17981,-4.67855 -7.17981,-4.67855 0,0 0,0 0,0 m -95.41511,53.64825 c 0,0 -5.99983,-5.67342 -5.99983,-5.67342 0,0 -9.32845,7.43079 -9.32845,7.43079 0,0 -9.53966,7.59905 -9.53966,7.59905 0,0 5.83935,6.04167 5.83935,6.04167 0,0 6.02707,6.2359 6.02707,6.2359 0,0 9.70574,-7.98232 9.70574,-7.98232 0,0 9.48409,-7.80003 9.48409,-7.80003 0,0 -6.18831,-5.85164 -6.18831,-5.85164 0,0 0,0 0,0 m 21.35643,-17.2818 c 0,0 -6.1642,-5.27267 -6.1642,-5.27267 0,0 -8.8575,7.05565 -8.8575,7.05565 0,0 -9.05283,7.21125 -9.05283,7.21125 0,0 6.02639,5.61048 6.02639,5.61048 0,0 6.21493,5.78599 6.21493,5.78599 0,0 9.19523,-7.56246 9.19523,-7.56246 0,0 8.99075,-7.39429 8.99075,-7.39429 0,0 -6.35277,-5.43395 -6.35277,-5.43395 0,0 0,0 0,0 m 20.28159,-16.41203 c 0,0 -6.30487,-4.90437 -6.30487,-4.90437 0,0 -8.42132,6.70821 -8.42132,6.70821 0,0 -8.60235,6.8524 -8.60235,6.8524 0,0 6.18697,5.21486 6.18697,5.21486 0,0 6.37547,5.37376 6.37547,5.37376 0,0 8.72397,-7.17489 8.72397,-7.17489 0,0 8.53493,-7.0194 8.53493,-7.0194 0,0 -6.4928,-5.05057 -6.4928,-5.05057 0,0 0,0 0,0 m 19.28588,-15.60629 c 0,0 -6.42465,-4.56529 -6.42465,-4.56529 0,0 -8.0166,6.38582 -8.0166,6.38582 0,0 -8.18466,6.51969 -8.18466,6.51969 0,0 6.32429,4.85119 6.32429,4.85119 0,0 6.51207,4.99524 6.51207,4.99524 0,0 8.28804,-6.81635 8.28804,-6.81635 0,0 8.1129,-6.67232 8.1129,-6.67232 0,0 -6.61139,-4.69798 -6.61139,-4.69798 0,0 0,0 0,0 m -71.46069,45.95503 c -3.10223,2.32972 -8.09923,6.30171 -11.10606,8.82976 -3.03007,2.54758 -0.42447,0.58869 5.72943,-4.30572 6.06537,-4.824 8.45787,-6.83798 5.37663,-4.52404 0,0 0,0 0,0 m 21.36261,-16.98411 c -2.95195,2.21373 -7.69583,5.98453 -10.54338,8.3824 -2.86897,2.41592 -0.39137,0.55588 5.44956,-4.08961 5.75903,-4.58037 8.02631,-6.49192 5.09382,-4.29279 0,0 0,0 0,0 m 20.30034,-16.13956 c -2.81261,2.10627 -7.32214,5.69078 -10.0224,7.9682 -2.72008,2.29413 -0.36102,0.52558 5.19021,-3.88951 5.47534,-4.35473 7.62671,-6.17141 4.83219,-4.07869 0,0 0,0 0,0 m 19.31537,-15.35648 c -2.68316,2.00651 -6.97527,5.41821 -9.5391,7.58396 -2.58218,2.18125 -0.33315,0.49756 4.94942,-3.70385 5.2121,-4.14537 7.256,-5.87403 4.58968,-3.88011 0,0 0,0 0,0"
         style="fill:#5f53a0" />
      <path
         inkscape:connector-curvature="0"
         id="path3018"
         d="m -247.56626,842.94275 c 0,0 -58.50996,-77.4639 -58.50996,-77.4639 0,0 91.80389,-72.88672 91.80389,-72.88672 0,0 74.87128,-59.44326 74.87128,-59.44326 0,0 70.36622,41.87438 70.36622,41.87438 0,0 94.288637,56.11042 94.288637,56.11042 0,0 -80.698249,96.31726 -80.698249,96.31726 0,0 -107.190118,127.9366 -107.190118,127.9366 0,0 -84.9317,-112.44478 -84.9317,-112.44478 0,0 0,0 0,0 m 128.4947,-21.55944 c 0,0 -10.13198,-9.56578 -10.13198,-9.56578 0,0 -10.76506,11.31312 -10.76506,11.31312 0,0 -11.08876,11.65329 -11.08876,11.65329 0,0 9.02505,9.81656 9.02505,9.81656 5.11828,5.56714 10.00739,10.46715 10.76211,10.77652 1.07314,0.43991 3.78664,-2.21 12.23167,-11.92389 0,0 10.52281,-12.10385 10.52281,-12.10385 0,0 -10.55584,-9.96597 -10.55584,-9.96597 0,0 0,0 0,0 m 23.496905,-25.35587 c 0,0 -10.262825,-8.76554 -10.262825,-8.76554 0,0 -10.07921,10.59234 -10.07921,10.59234 0,0 -10.37225,10.90031 -10.37225,10.90031 0,0 9.19606,8.98604 9.19606,8.98604 5.20988,5.09089 10.16681,9.56461 10.91451,9.84234 1.0631,0.39492 3.60696,-2.07914 11.472073,-11.13766 0,0 9.809441,-11.29786 9.809441,-11.29786 0,0 -10.677799,-9.11997 -10.677799,-9.11997 0,0 0,0 0,0 m 22.005052,-23.74599 c 0,0 -10.357433,-8.04546 -10.357433,-8.04546 0,0 -9.456872,9.93832 -9.456872,9.93832 0,0 -9.723012,10.21802 -9.723012,10.21802 0,0 9.326454,8.24064 9.326454,8.24064 5.278672,4.66412 10.283862,8.75633 11.023794,9.00588 1.051989,0.35483 3.442402,-1.96052 10.78453,-10.42763 0,0 9.165217,-10.56953 9.165217,-10.56953 0,0 -10.762678,-8.36024 -10.762678,-8.36024 0,0 0,0 0,0 m 20.650905,-22.28471 c 0,0 -10.421603,-7.39556 -10.421603,-7.39556 0,0 -8.890443,9.34306 -8.890443,9.34306 0,0 -9.132882,9.59784 -9.132882,9.59784 0,0 9.422748,7.56952 9.422748,7.56952 5.328365,4.28042 10.365548,8.03004 11.097147,8.25441 1.040085,0.31901 3.291219,-1.85261 10.160094,-9.78422 0,0 8.581514,-9.90921 8.581514,-9.90921 0,0 -10.816575,-7.67584 -10.816575,-7.67584 0,0 0,0 0,0 m -113.376482,75.33524 c 0,0 -9.0707,-9.52622 -9.0707,-9.52622 0,0 -11.30567,11.23002 -11.30567,11.23002 0,0 -11.64132,11.56341 -11.64132,11.56341 0,0 7.98196,9.76435 7.98196,9.76435 4.52491,5.53536 8.87841,10.40662 9.58497,10.71475 1.00465,0.43817 3.8366,-2.18832 12.76586,-11.82042 0,0 11.13019,-12.00626 11.13019,-12.00626 0,0 -9.44529,-9.91963 -9.44529,-9.91963 0,0 0,0 0,0 m 24.74056,-25.17534 c 0,0 -9.25757,-8.74024 -9.25757,-8.74024 0,0 -10.59389,10.52299 -10.59389,10.52299 0,0 -10.89812,10.82519 -10.89812,10.82519 0,0 8.20904,8.94966 8.20904,8.94966 4.64899,5.06841 9.09999,9.52185 9.80228,9.79897 0.99851,0.39402 3.65486,-2.06033 11.97948,-11.05068 0,0 10.38604,-11.21661 10.38604,-11.21661 0,0 -9.62726,-9.08928 -9.62726,-9.08928 0,0 0,0 0,0 m 84.774447,-86.26422 c 0,0 -9.658046,-6.28534 -9.658046,-6.28534 0,0 -8.326568,8.27084 -8.326568,8.27084 0,0 -8.538041,8.4809 -8.538041,8.4809 0,0 8.732579,6.41933 8.732579,6.41933 4.928566,3.623 9.583142,6.78678 10.260502,6.96921 0.962857,0.25935 3.063649,-1.65311 9.487994,-8.62382 0,0 8.040287,-8.72408 8.040287,-8.72408 0,0 -9.998707,-6.50704 -9.998707,-6.50704 0,0 0,0 0,0 M -186.42943,804.1866 c 0,0 -8.297,-8.71366 -8.297,-8.71366 0,0 -11.08144,10.45393 -11.08144,10.45393 0,0 -11.3958,10.7505 -11.3958,10.7505 0,0 7.2673,8.91235 7.2673,8.91235 4.11417,5.04547 8.08289,9.47822 8.74181,9.75467 0.93682,0.39308 3.69923,-2.04178 12.45804,-10.96451 0,0 10.93135,-11.13591 10.93135,-11.13591 0,0 -8.62426,-9.05737 -8.62426,-9.05737 0,0 0,0 0,0 m 24.30963,-23.44593 c 0,0 -8.49167,-8.01714 -8.49167,-8.01714 0,0 -10.41272,9.82308 -10.41272,9.82308 0,0 -10.69888,10.09304 -10.69888,10.09304 0,0 7.49763,8.19302 7.49763,8.19302 4.24069,4.63399 8.31039,8.69911 8.9664,8.94839 0.93264,0.3544 3.53101,-1.92798 11.72291,-10.28207 0,0 10.23235,-10.43494 10.23235,-10.43494 0,0 -8.81602,-8.32338 -8.81602,-8.32338 0,0 0,0 0,0 m -42.74615,4.08355 c 0,0 -7.61822,-8.0008 -7.61822,-8.0008 0,0 -10.85453,9.76551 -10.85453,9.76551 0,0 -11.14938,10.03077 -11.14938,10.03077 0,0 6.64328,8.16747 6.64328,8.16747 3.75621,4.61802 7.38946,8.6688 8.00621,8.91784 0.87678,0.35406 3.57063,-1.91201 12.15395,-10.20999 0,0 10.7245,-10.36796 10.7245,-10.36796 0,0 -7.90581,-8.30284 -7.90581,-8.30284 0,0 0,0 0,0 m 23.86347,-21.91103 c 0,0 -7.81703,-7.3802 -7.81703,-7.3802 0,0 -10.2256,9.19969 -10.2256,9.19969 0,0 -10.49504,9.44208 -10.49504,9.44208 0,0 6.87373,7.52869 6.87373,7.52869 3.88326,4.25327 7.61907,7.97864 8.23398,8.20371 0.87414,0.31997 3.41453,-1.81024 11.46575,-9.60141 0,0 10.06739,-9.7422 10.06739,-9.7422 0,0 -8.10318,-7.65036 -8.10318,-7.65036 0,0 0,0 0,0 m 43.70805,-40.13199 c 0,0 -8.11467,-6.30332 -8.11467,-6.30332 0,0 -9.1213,8.20617 -9.1213,8.20617 0,0 -9.34803,8.41016 -9.34803,8.41016 0,0 7.22562,6.42363 7.22562,6.42363 4.0758,3.62341 7.96344,6.78775 8.57214,6.97179 0.86523,0.26161 3.13716,-1.63153 10.26089,-8.53866 0,0 8.9201,-8.64889 8.9201,-8.64889 0,0 -8.39475,-6.52088 -8.39475,-6.52088 0,0 0,0 0,0 m 20.06402,-18.42245 c 0,0 -8.22243,-5.83495 -8.22243,-5.83495 0,0 -8.63505,7.76871 -8.63505,7.76871 0,0 -8.84379,7.95651 -8.84379,7.95651 0,0 7.35684,5.94439 7.35684,5.94439 4.1469,3.35072 8.08877,6.27255 8.6934,6.43898 0.85941,0.23656 3.01351,-1.55281 9.7317,-8.07313 0,0 8.4177,-8.16976 8.4177,-8.16976 0,0 -8.49837,-6.03075 -8.49837,-6.03075 0,0 0,0 0,0 m 18.997563,-17.44324 c 0,0 -8.307703,-5.40656 -8.307703,-5.40656 0,0 -8.18668,7.36532 -8.18668,7.36532 0,0 -8.37928,7.5386 -8.37928,7.5386 0,0 7.46359,5.50682 7.46359,5.50682 4.20426,3.10201 8.18858,5.80287 8.78866,5.95332 0.85289,0.21385 2.89855,-1.48018 9.244394,-7.64517 0,0 7.955982,-7.72924 7.955982,-7.72924 0,0 -8.578963,-5.58309 -8.578963,-5.58309 0,0 0,0 0,0 m -123.577913,80.11294 c 0,0 -7.01947,-7.37198 -7.01947,-7.37198 0,0 -10.62775,9.15159 -10.62775,9.15159 0,0 -10.90465,9.39004 -10.90465,9.39004 0,0 6.09522,7.51247 6.09522,7.51247 3.44241,4.24282 6.78139,7.95886 7.36059,8.18402 0.82334,0.32011 3.4501,-1.79641 11.85592,-9.54087 0,0 10.51367,-9.68646 10.51367,-9.68646 0,0 -7.27353,-7.63881 -7.27353,-7.63881 0,0 0,0 0,0 m 23.40975,-20.54153 c 0,0 -7.2197,-6.81626 -7.2197,-6.81626 0,0 -10.03556,8.64166 -10.03556,8.64166 0,0 -10.2895,8.86033 -10.2895,8.86033 0,0 6.32359,6.94223 6.32359,6.94223 3.56863,3.91774 7.01038,7.34414 7.58858,7.54807 0.82191,0.28988 3.30489,-1.70493 11.21073,-8.9953 0,0 9.89528,-9.12494 9.89528,-9.12494 0,0 -7.47342,-7.05579 -7.47342,-7.05579 0,0 0,0 0,0 m 43.0236,-37.75224 c 0,0 -7.52723,-5.847 -7.52723,-5.847 0,0 -8.99055,7.74179 -8.99055,7.74179 0,0 -9.20566,7.92704 -9.20566,7.92704 0,0 6.67967,5.95044 6.67967,5.95044 3.76422,3.35329 7.36223,6.27753 7.93604,6.44486 0.81558,0.23785 3.04569,-1.54341 10.07517,-8.03735 0,0 8.80977,-8.13859 8.80977,-8.13859 0,0 -7.77721,-6.04119 -7.77721,-6.04119 0,0 0,0 0,0 m 19.81361,-17.386 c 0,0 -7.64245,-5.42336 -7.64245,-5.42336 0,0 -8.52822,7.34368 -8.52822,7.34368 0,0 -8.72687,7.51474 -8.72687,7.51474 0,0 6.81603,5.51811 6.81603,5.51811 3.83856,3.10762 7.49444,5.81362 8.0651,5.96516 0.81108,0.2154 2.92965,-1.47189 9.57393,-7.61552 0,0 8.33195,-7.70414 8.33195,-7.70414 0,0 -7.88947,-5.59867 -7.88947,-5.59867 0,0 0,0 0,0 m 18.79759,-16.49447 c 0,0 -7.73635,-5.03472 -7.73635,-5.03472 0,0 -8.10066,6.97551 -8.10066,6.97551 0,0 -8.28447,7.1338 -8.28447,7.1338 0,0 6.92933,5.12211 6.92933,5.12211 3.89997,2.88282 7.6026,5.38933 8.16964,5.5265 0.8059,0.19497 2.82148,-1.4057 9.11095,-7.22653 0,0 7.89146,-7.30344 7.89146,-7.30344 0,0 -7.9799,-5.19323 -7.9799,-5.19323 0,0 0,0 0,0 m -120.67168,75.76234 c 0,0 -6.48862,-6.81448 -6.48862,-6.81448 0,0 -10.40306,8.60142 -10.40306,8.60142 0,0 -10.66349,8.81674 -10.66349,8.81674 0,0 5.61133,6.93344 5.61133,6.93344 3.16578,3.91169 6.24521,7.33274 6.7908,7.537 0.77551,0.29038 3.33699,-1.69289 11.56548,-8.94429 0,0 10.30175,-9.07846 10.30175,-9.07846 0,0 -6.71419,-7.05137 -6.71419,-7.05137 0,0 0,0 0,0 m 22.95414,-19.31365 c 0,0 -6.68832,-6.31456 -6.68832,-6.31456 0,0 -9.84478,8.13982 -9.84478,8.13982 0,0 -10.08441,8.33795 -10.08441,8.33795 0,0 5.83606,6.42194 5.83606,6.42194 3.29024,3.62052 6.47165,6.78247 7.01691,6.96781 0.77503,0.26345 3.2016,-1.61026 10.9597,-8.45282 0,0 9.71917,-8.57219 9.71917,-8.57219 0,0 -6.91433,-6.52795 -6.91433,-6.52795 0,0 0,0 0,0 m 61.86741,-52.05534 c 0,0 -7.12173,-5.05384 -7.12173,-5.05384 0,0 -8.41526,6.95786 -8.41526,6.95786 0,0 -8.60436,7.11423 -8.60436,7.11423 0,0 6.33202,5.13625 6.33202,5.13625 3.56299,2.89013 6.96317,5.40331 7.50311,5.54165 0.76738,0.19662 2.84981,-1.39842 9.41318,-7.20175 0,0 8.2368,-7.28299 8.2368,-7.28299 0,0 -7.34376,-5.21141 -7.34376,-5.21141 0,0 0,0 0,0 m 18.57953,-15.63285 c 0,0 -7.22197,-4.69997 -7.22197,-4.69997 0,0 -8.00741,6.62066 -8.00741,6.62066 0,0 -8.18289,6.76574 -8.18289,6.76574 0,0 6.44983,4.7765 6.44983,4.7765 3.62719,2.68616 7.07721,5.01851 7.6143,5.14387 0.7633,0.17817 2.74789,-1.33787 8.97309,-6.84682 0,0 7.81652,-6.91716 7.81652,-6.91716 0,0 -7.44147,-4.84282 -7.44147,-4.84282 0,0 0,0 0,0 m -95.35772,53.61065 c -3.67068,-3.46555 -6.06971,-6.2034 -5.86571,-6.68159 0.19083,-0.44731 -4.53776,3.09069 -10.58668,7.92466 -6.13763,4.90487 -10.83881,8.80482 -10.36492,8.60085 0.5331,-0.22945 2.92044,1.91149 6.31765,5.67639 3.07446,3.40724 6.07214,6.38423 6.61334,6.56153 0.7921,0.25956 2.92258,-1.31621 10.76069,-7.94971 0,0 9.54133,-8.07494 9.54133,-8.07494 0,0 -6.4157,-6.05719 -6.4157,-6.05719 0,0 0,0 0,0 m 21.33951,-17.26811 c -3.77038,-3.2203 -6.25672,-5.76983 -6.07709,-6.22062 0.16804,-0.4217 -4.3332,2.94119 -10.07562,7.53087 -5.82446,4.65526 -10.27773,8.3539 -9.82022,8.15847 0.51467,-0.21986 2.96427,1.76601 6.48146,5.26393 3.1815,3.16409 6.26659,5.92464 6.80721,6.08576 0.79121,0.23584 2.81703,-1.25854 10.2349,-7.54124 0,0 9.03498,-7.65235 9.03498,-7.65235 0,0 -6.58562,-5.62482 -6.58562,-5.62482 0,0 0,0 0,0 m 20.26593,-16.39935 c -3.85562,-2.99497 -6.41774,-5.37129 -6.26034,-5.79677 0.14725,-0.39804 -4.14311,2.80254 -9.60169,7.16598 -5.5346,4.4242 -9.75869,7.93665 -9.31653,7.74916 0.4974,-0.21092 2.99994,1.63267 6.62054,4.88564 3.27355,2.94117 6.43303,5.50348 6.97238,5.64983 0.78935,0.21422 2.71839,-1.20501 9.74851,-7.16393 0,0 8.56741,-7.26195 8.56741,-7.26195 0,0 -6.73028,-5.22796 -6.73028,-5.22796 0,0 0,0 0,0 m 19.27136,-15.59455 c -3.92812,-2.78755 -6.55584,-5.00425 -6.41876,-5.40631 0.12825,-0.37615 -3.9661,2.6737 -9.16133,6.8272 -5.26581,4.20994 -9.27762,7.54982 -8.84987,7.36973 0.4812,-0.20259 3.02849,1.5102 6.73794,4.538 3.35244,2.73639 6.57489,5.11676 7.11241,5.24961 0.78664,0.19448 2.626,-1.15522 9.29763,-6.81467 0,0 8.13476,-6.90058 8.13476,-6.90058 0,0 -6.85278,-4.86298 -6.85278,-4.86298 0,0 0,0 0,0"
         style="fill:#4e4486" />
      <path
         inkscape:connector-curvature="0"
         id="path3016"
         d="m -247.56626,842.94275 c 0,0 -58.50996,-77.4639 -58.50996,-77.4639 0,0 91.80389,-72.88672 91.80389,-72.88672 0,0 74.87128,-59.44326 74.87128,-59.44326 0,0 70.36622,41.87438 70.36622,41.87438 0,0 94.288637,56.11042 94.288637,56.11042 0,0 -80.698249,96.31726 -80.698249,96.31726 0,0 -107.190118,127.9366 -107.190118,127.9366 0,0 -84.9317,-112.44478 -84.9317,-112.44478 0,0 0,0 0,0 m 139.4957,-11.62942 c -0.006,-2.53213 -18.75496,-20.12459 -21.11893,-19.92008 -2.36099,0.20424 -22.13146,20.90839 -22.30294,23.42582 -0.17289,2.5382 18.27307,21.78002 20.81262,21.59077 1.24224,-0.0926 5.23825,-3.93074 12.37168,-11.86751 6.99405,-7.78169 10.24071,-11.98397 10.23757,-13.229 0,0 0,0 0,0 m 23.606675,-26.20365 c -0.100676,-2.34285 -19.073975,-18.4543 -21.376205,-18.2414 -2.29943,0.21265 -20.8046,19.59175 -20.87232,21.92318 -0.0683,2.35003 18.68082,19.93957 21.1493,19.73859 1.20742,-0.0983 4.95623,-3.68241 11.610297,-11.08583 6.528433,-7.26364 9.538419,-11.18282 9.488928,-12.33454 0,0 0,0 0,0 m 22.078357,-24.50721 c -0.182976,-2.17235 -19.315288,-16.95225 -21.558772,-16.73237 -2.240831,0.21963 -19.59841,18.39694 -19.57507,20.56062 0.0115,1.06337 3.06746,4.15215 9.662156,9.7434 6.763045,5.73398 10.562406,8.43809 11.736091,8.33507 1.174412,-0.10309 4.699539,-3.45788 10.920984,-10.37995 6.107808,-6.79565 8.904542,-10.45907 8.814611,-11.52677 0,0 0,0 0,0 m 20.693805,-22.97034 c -0.254937,-2.01827 -19.491217,-15.59733 -21.678742,-15.37169 -2.185017,0.22539 -18.498539,17.30933 -18.395112,19.32125 0.05082,0.98861 3.153849,3.83069 9.806229,8.96211 6.816753,5.2582 10.625213,7.73053 11.767609,7.62355 1.14308,-0.10706 4.465095,-3.25417 10.294777,-9.74037 5.726564,-6.37146 8.330516,-9.80306 8.205239,-10.79485 0,0 0,0 0,0 m -114.724347,77.58445 c 0.19138,-2.51573 -16.59716,-20.0322 -18.90325,-19.8327 -2.30322,0.19925 -23.05734,20.74851 -23.41764,23.24955 -0.36324,2.52142 16.00967,21.65512 18.48246,21.47084 1.20955,-0.0901 5.37509,-3.89426 12.89679,-11.76375 7.37663,-7.71772 10.84754,-11.88707 10.94164,-13.12394 0,0 0,0 0,0 m 24.911,-26.00747 c 0.0866,-2.3301 -17.03123,-18.39234 -19.27887,-18.18448 -2.24494,0.20761 -21.68659,19.45735 -21.9334,21.77595 -0.24876,2.33689 16.54047,19.85049 18.94624,19.65461 1.17673,-0.0958 5.08655,-3.65125 12.10909,-10.9985 6.8916,-7.21026 10.11438,-11.1022 10.15694,-12.24758 0,0 0,0 0,0 m 85.105088,-88.85101 c -0.220874,-1.74859 -18.025084,-13.27692 -20.064498,-13.04767 -2.037232,0.229 -17.302251,15.34334 -17.212515,17.08896 0.04408,0.85743 2.920738,3.27552 9.083315,7.61958 6.304071,4.4438 9.823966,6.52106 10.884083,6.41064 1.060707,-0.11049 4.160793,-2.88293 9.612084,-8.58628 5.361592,-5.6095 7.806027,-8.62629 7.697531,-9.48523 0,0 0,0 0,0 m -130.993188,92.84996 c 0.26477,-2.31728 -15.08061,-18.32801 -17.27559,-18.12502 -2.19237,0.20274 -22.52082,19.32375 -22.9381,21.62947 -0.42052,2.32367 14.49966,19.75968 16.84509,19.56872 1.1472,-0.0934 5.20877,-3.6205 12.57935,-10.91205 7.23486,-7.15728 10.65912,-11.02213 10.78925,-12.16112 0,0 0,0 0,0 m 24.49102,-24.18139 c 0.16378,-2.15285 -15.52714,-16.87619 -17.66925,-16.66624 -2.13964,0.20971 -21.23612,18.17191 -21.54497,20.31583 -0.31118,2.16009 15.03491,18.16829 17.32013,17.9677 1.11772,-0.0981 4.94047,-3.40491 11.84327,-10.23369 6.77973,-6.70703 9.97034,-10.32563 10.05082,-11.3836 0,0 0,0 0,0 m -43.66572,4.06388 c 0.32512,-2.14289 -13.75551,-16.83403 -15.84949,-16.62879 -2.09159,0.20499 -21.99146,18.05986 -22.45494,20.1937 -0.46693,2.14976 13.18564,18.10442 15.41606,17.90864 1.0909,-0.0958 5.05023,-3.37883 12.26671,-10.16131 7.08935,-6.66299 10.46189,-10.25924 10.62166,-11.31224 0,0 0,0 0,0 m 24.05144,-22.56473 c 0.2281,-1.9964 -14.2072,-15.54155 -16.25314,-15.33051 -2.04367,0.2108 -20.78578,17.02689 -21.14583,19.01644 -0.36266,2.00393 13.71869,16.69282 15.89475,16.48903 1.06429,-0.0997 4.80023,-3.18644 11.57786,-9.55647 6.66186,-6.26121 9.81429,-9.63764 9.92636,-10.61849 0,0 0,0 0,0 m 43.98204,-41.26334 c 0.0647,-1.74167 -14.89763,-13.30023 -16.85338,-13.08039 -1.95371,0.21962 -18.66406,15.21274 -18.84909,16.95098 -0.0909,0.85371 2.24303,3.27209 7.37015,7.61907 5.24225,4.44459 8.23072,6.52372 9.24468,6.4181 1.01452,-0.10568 4.35951,-2.84989 10.37152,-8.50034 5.91522,-5.55948 8.68433,-8.55198 8.71612,-9.40742 0,0 0,0 0,0 m 20.15941,-18.91328 c -0.004,-1.63058 -15.15527,-12.32593 -17.06868,-12.10284 -1.91145,0.22286 -17.72764,14.41371 -17.83857,16.04222 -0.0545,0.79971 2.33647,3.04151 7.54715,7.06085 5.32438,4.10705 8.34006,6.02252 9.33077,5.91464 0.99123,-0.10792 4.16455,-2.70217 9.84151,-8.03772 5.58812,-5.25205 8.18984,-8.07638 8.18782,-8.87715 0,0 0,0 0,0 m 19.070275,-17.89146 c -0.0657,-1.5288 -15.364825,-11.43507 -17.237585,-11.20937 -1.87089,0.22548 -16.86281,13.67677 -16.90719,15.20463 -0.0218,0.75019 2.41675,2.83066 7.69453,6.55101 5.38978,3.79931 8.42514,5.56578 9.39358,5.45606 0.96893,-0.10978 3.98419,-2.56622 9.353349,-7.61247 5.287416,-4.96944 7.735573,-7.63918 7.703316,-8.38986 0,0 0,0 0,0 m -124.858215,82.17263 c 0.37487,-1.98875 -12.59117,-15.51697 -14.59296,-15.31049 -1.9996,0.20626 -21.47275,16.93264 -21.97369,18.91439 -0.50452,1.99591 12.0354,16.6503 14.16146,16.45119 2.12856,-0.19934 22.02762,-18.05198 22.40519,-20.05509 0,0 0,0 0,0 m 23.6011,-21.12557 c 0.28184,-1.85758 -13.04275,-14.3605 -15.0007,-14.14917 -1.95586,0.21111 -20.33968,16.00181 -20.74203,17.85421 -0.40514,1.86526 12.56163,15.39148 14.63837,15.18567 2.0791,-0.20604 20.82055,-17.02011 21.10436,-18.89071 0,0 0,0 0,0 m 43.31135,-38.7684 c 0.12387,-1.62825 -13.74819,-12.34456 -15.62358,-12.1259 -1.8735,0.21844 -18.33598,14.35881 -18.57021,15.98476 -0.11502,0.79842 2.03197,3.04184 6.77756,7.06533 4.84805,4.11038 7.62547,6.02818 8.59533,5.92258 1.98631,-0.21628 18.69621,-15.20772 18.8209,-16.84677 0,0 0,0 0,0 m 19.91834,-17.82909 c 0.0568,-1.52775 -14.01883,-11.46384 -15.85534,-11.24251 -1.8347,0.22112 -17.44754,13.6317 -17.61005,15.15828 -0.0798,0.74952 2.12541,2.83353 6.95855,6.56165 4.93466,3.80642 7.74252,5.57706 8.69113,5.46959 1.94276,-0.2201 17.75858,-14.40942 17.81571,-15.94701 0,0 0,0 0,0 m 18.88079,-16.90037 c -0.004,-1.43535 -14.24399,-10.65608 -16.0431,-10.43261 -1.79738,0.22325 -16.62472,12.95912 -16.72248,14.39427 -0.048,0.70455 2.20655,2.64246 7.11174,6.10017 5.00549,3.52841 7.83666,5.16463 8.76488,5.05564 1.90096,-0.22322 16.89259,-13.67311 16.88896,-15.11747 0,0 0,0 0,0 m -121.91445,77.62388 c 0.41589,-1.85179 -11.56285,-14.34992 -13.48015,-14.14297 -1.91529,0.20673 -20.96704,15.92233 -21.49826,17.76878 -0.53488,1.85914 11.02307,15.36598 13.05403,15.16471 2.03324,-0.20149 21.50561,-16.92588 21.92438,-18.79052 0,0 0,0 0,0 m 23.14648,-19.83793 c 0.32681,-1.73378 -12.01051,-13.31031 -13.88765,-13.0993 -1.87522,0.21079 -19.90069,15.07982 -20.33798,16.80978 -0.44021,1.74152 11.53926,14.23784 13.52528,14.03097 1.98819,-0.2071 20.37134,-15.99598 20.70035,-17.74145 0,0 0,0 0,0 m 62.27524,-53.37364 c 0.10918,-1.43512 -13.00147,-10.69004 -14.76694,-10.47076 -1.7638,0.21908 -17.16293,12.92167 -17.36962,14.35637 -0.10146,0.70429 1.9378,2.64681 6.433,6.11426 4.58621,3.53763 7.2079,5.17903 8.1178,5.07218 1.86344,-0.21881 17.4759,-13.628 17.58576,-15.07205 0,0 0,0 0,0 m 18.67058,-16.00182 c 0.0502,-1.35094 -13.23766,-9.9549 -14.96862,-9.73389 -1.72936,0.22081 -16.37964,12.30568 -16.52349,13.65703 -0.0706,0.6633 2.01906,2.47301 6.58977,5.69494 4.66087,3.28549 7.30861,4.80512 8.19978,4.69703 1.82504,-0.22138 16.65206,-12.95598 16.70256,-14.31511 0,0 0,0 0,0 m -96.38094,54.67471 c 0.0993,-0.83136 -2.01205,-3.20934 -6.39224,-7.21686 0,0 -6.3341,-5.7952 -6.3341,-5.7952 0,0 -10.50524,8.34971 -10.50524,8.34971 0,0 -10.77359,8.56301 -10.77359,8.56301 0,0 5.95671,6.37888 5.95671,6.37888 4.12361,4.41591 6.62545,6.5825 7.58984,6.55811 1.10339,-0.0279 3.6517,-1.86465 10.9795,-7.9055 7.20062,-5.93599 9.3652,-7.97837 9.47912,-8.93215 0,0 0,0 0,0 m 21.49602,-17.69144 c 0.0612,-0.78037 -2.12252,-2.99189 -6.6139,-6.71331 0,0 -6.49935,-5.38515 -6.49935,-5.38515 0,0 -9.97634,7.92935 -9.97634,7.92935 0,0 -10.22458,8.12664 -10.22458,8.12664 0,0 6.15825,5.92538 6.15825,5.92538 4.26002,4.09899 6.82025,6.10488 7.76823,6.07335 1.08459,-0.0361 3.50986,-1.77848 10.45192,-7.50133 6.82474,-5.62613 8.8656,-7.55973 8.93577,-8.45493 0,0 0,0 0,0 m 20.39811,-16.78785 c 0.0268,-0.73344 -2.21928,-2.79213 -6.80521,-6.25084 0,0 -6.64048,-5.00826 -6.64048,-5.00826 0,0 -9.48641,7.53994 -9.48641,7.53994 0,0 -9.71648,7.72281 -9.71648,7.72281 0,0 6.33171,5.50928 6.33171,5.50928 4.37699,3.8085 6.98623,5.66727 7.91817,5.62939 1.06621,-0.0434 3.37766,-1.69865 9.96365,-7.12797 6.47755,-5.33991 8.40435,-7.17307 8.43505,-8.01435 0,0 0,0 0,0 m 19.38221,-15.95176 c -0.004,-0.69015 -2.30394,-2.60827 -6.96979,-5.8253 0,0 -6.76039,-4.66119 -6.76039,-4.66119 0,0 -9.0317,7.17854 -9.0317,7.17854 0,0 -9.24534,7.34833 -9.24534,7.34833 0,0 6.48051,5.12674 6.48051,5.12674 4.47691,3.54173 7.12692,5.26555 8.04321,5.22198 1.04828,-0.0498 3.2542,-1.62453 9.51084,-6.78233 6.15619,-5.075 7.97764,-6.8152 7.97266,-7.60677 0,0 0,0 0,0"
         style="fill:#4a407c" />
      <path
         inkscape:connector-curvature="0"
         id="path3014"
         d="m -247.56626,842.94275 c 0,0 -58.50996,-77.4639 -58.50996,-77.4639 0,0 91.80389,-72.88672 91.80389,-72.88672 0,0 74.87128,-59.44326 74.87128,-59.44326 0,0 70.36622,41.87438 70.36622,41.87438 0,0 94.288637,56.11042 94.288637,56.11042 0,0 -80.698249,96.31726 -80.698249,96.31726 0,0 -107.190118,127.9366 -107.190118,127.9366 0,0 -84.9317,-112.44478 -84.9317,-112.44478 0,0 0,0 0,0 m 195.253527,-93.59992 c 0,0 -11.127962,-7.87571 -11.127962,-7.87571 0,0 -31.302106,32.83701 -31.302106,32.83701 0,0 -34.413989,36.10148 -34.413989,36.10148 0,0 -51.14469,-48.13607 -51.14469,-48.13607 0,0 -41.558,-39.11332 -41.558,-39.11332 0,0 22.12003,-18.22439 22.12003,-18.22439 0,0 20.95722,-17.26637 20.95722,-17.26637 0,0 8.43718,6.49906 8.43718,6.49906 0,0 8.76335,6.75031 8.76335,6.75031 0,0 -10.19308,8.76612 -10.19308,8.76612 0,0 -10.47053,9.00471 -10.47053,9.00471 0,0 16.63238,14.0809 16.63238,14.0809 0,0 17.93468,15.18342 17.93468,15.18342 0,0 30.81804,-28.94312 30.81804,-28.94312 0,0 28.370506,-26.64448 28.370506,-26.64448 0,0 -27.721916,-17.9948 -27.721916,-17.9948 0,0 -24.99166,-16.22255 -24.99166,-16.22255 0,0 -9.10865,7.52225 -9.10865,7.52225 0,0 -9.33605,7.71005 -9.33605,7.71005 0,0 -7.75077,-5.77383 -7.75077,-5.77383 0,0 -7.48634,-5.57684 -7.48634,-5.57684 0,0 -38.93613,30.9485 -38.93613,30.9485 0,0 -43.06959,34.23398 -43.06959,34.23398 0,0 7.18538,7.05631 7.18538,7.05631 0,0 7.45883,7.32483 7.45883,7.32483 0,0 -11.79045,9.73698 -11.79045,9.73698 0,0 -12.12622,10.01427 -12.12622,10.01427 0,0 38.2975,44.60074 38.2975,44.60074 0,0 47.48557,55.30103 47.48557,55.30103 0,0 13.49676,-14.10831 13.49676,-14.10831 0,0 13.03644,-13.62713 13.03644,-13.62713 0,0 10.17598,11.14488 10.17598,11.14488 5.79524,6.34704 11.3068,11.93193 12.11515,12.26471 1.2544,0.51636 8.95827,-7.76969 49.093439,-52.68312 0,0 41.72865,-46.69661 41.72865,-46.69661 0,0 -11.578952,-8.19489 -11.578952,-8.19489 0,0 0,0 0,0 m -123.892517,64.79875 c -0.50272,-0.52709 -0.39639,-1.4679 0.23434,-2.09085 0.62969,-0.62194 1.55549,-0.70302 2.05929,-0.18003 0.50493,0.52415 0.40358,1.46533 -0.22719,2.09137 -0.63181,0.62707 -1.56259,0.70778 -2.06644,0.17951 0,0 0,0 0,0 m -19.26473,-20.1985 c -0.46039,-0.4827 -0.32947,-1.35255 0.28916,-1.93312 0.61767,-0.57966 1.49917,-0.66205 1.96067,-0.18298 0.46249,0.4801 0.33608,1.35024 -0.28269,1.93353 -0.61974,0.58421 -1.50576,0.66632 -1.96714,0.18257 0,0 0,0 0,0 m -17.67457,-18.53126 c -0.42319,-0.4437 -0.27201,-1.25085 0.33435,-1.79375 0.60544,-0.54209 1.44665,-0.62531 1.87096,-0.18484 0.42518,0.44137 0.27811,1.24874 -0.32845,1.79407 -0.60748,0.54615 -1.45279,0.62914 -1.87686,0.18452 0,0 0,0 0,0 m 66.94771,-60.06532 c -0.45159,-0.3503 -0.40216,-1.01092 0.10843,-1.46807 0.50988,-0.45653 1.29591,-0.54548 1.74812,-0.19762 0.45307,0.3485 0.40723,1.00919 -0.10328,1.46817 -0.51121,0.45961 -1.30082,0.54848 -1.75327,0.19752 0,0 0,0 0,0 m 19.9247,-17.87639 c -0.45785,-0.32447 -0.43561,-0.94425 0.0481,-1.3773 0.48302,-0.43247 1.25212,-0.52268 1.71047,-0.20045 0.45919,0.32282 0.44039,0.94263 -0.0431,1.37734 -0.48418,0.4353 -1.25672,0.52547 -1.7154,0.20041 0,0 0,0 0,0 m -103.14589,60.87945 c -0.39033,-0.40924 -0.22244,-1.16069 0.37161,-1.66995 0.59319,-0.50853 1.39759,-0.59219 1.78903,-0.18585 0.39222,0.40715 0.22808,1.15876 -0.36622,1.6702 -0.59516,0.51217 -1.40332,0.59566 -1.79442,0.1856 0,0 0,0 0,0 m 85.46678,-73.40842 c -0.42589,-0.30182 -0.38233,-0.88395 0.0955,-1.29363 0.47727,-0.40915 1.21564,-0.49862 1.64207,-0.19882 0.42719,0.30033 0.3868,0.88247 -0.091,1.29364 -0.47842,0.41171 -1.21996,0.50117 -1.64661,0.19881 0,0 0,0 0,0 m 87.739154,28.37322 c 0,0 -10.313536,-6.69471 -10.313536,-6.69471 0,0 -8.891409,8.81753 -8.891409,8.81753 0,0 -9.132722,9.05683 -9.132722,9.05683 0,0 9.384501,6.89369 9.384501,6.89369 5.30666,3.89819 10.280239,7.29532 10.956121,7.47808 0.962051,0.26013 3.186543,-1.78692 10.087964,-9.26858 0,0 8.611619,-9.33563 8.611619,-9.33563 0,0 -10.702538,-6.94721 -10.702538,-6.94721 0,0 0,0 0,0"
         style="fill:#332778" />
      <path
         inkscape:connector-curvature="0"
         id="path3012"
         d="m -247.56626,842.94275 c 0,0 -58.50996,-77.4639 -58.50996,-77.4639 0,0 91.80389,-72.88672 91.80389,-72.88672 0,0 74.87128,-59.44326 74.87128,-59.44326 0,0 70.36622,41.87438 70.36622,41.87438 0,0 94.288637,56.11042 94.288637,56.11042 0,0 -80.698249,96.31726 -80.698249,96.31726 0,0 -107.190118,127.9366 -107.190118,127.9366 0,0 -84.9317,-112.44478 -84.9317,-112.44478 0,0 0,0 0,0 m 99.92371,91.17785 c 0,0 -14.67395,16.85559 -14.67395,16.85559 0,0 -12.25101,-15.4012 -12.25101,-15.4012 0,0 -11.63965,-14.63263 -11.63965,-14.63263 0,0 11.54224,15.70566 11.54224,15.70566 0,0 12.18595,16.58156 12.18595,16.58156 0,0 14.77896,-18.03032 14.77896,-18.03032 0,0 14.19827,-17.32186 14.19827,-17.32186 0,0 -14.14081,16.2432 -14.14081,16.2432 0,0 0,0 0,0 m 34.75797,-41.32067 c -3.88374,4.27693 -10.07889,11.6402 -13.76923,16.37206 -3.73212,4.78544 -0.43189,1.14333 7.22255,-7.9647 7.49443,-8.91764 10.39228,-12.64227 6.54668,-8.40736 0,0 0,0 0,0 m 26.025319,-30.94495 c -3.616482,3.9717 -9.362157,10.80075 -12.769882,15.1838 -3.444847,4.43083 -0.376317,1.05373 6.719537,-7.38965 6.952956,-8.27333 9.632614,-11.72826 6.050345,-7.79415 0,0 0,0 0,0 M -62.673225,833.097 c -3.376675,3.69823 -8.720072,10.04915 -11.875512,14.12037 -3.188574,4.114 -0.327491,0.97382 6.268769,-6.87507 6.468111,-7.69642 8.952599,-10.90974 5.606743,-7.2453 0,0 0,0 0,0 m 22.535077,-26.79493 c -3.160656,3.45223 -8.14259,9.37353 -11.071917,13.16487 -2.959011,3.82977 -0.284421,0.90229 5.863205,-6.41278 6.032267,-7.1778 8.3415,-10.17386 5.208712,-6.75209 0,0 0,0 0,0 m 21.047581,-25.02625 c -2.965355,3.23015 -7.621301,8.76399 -10.347213,12.30317 -2.752603,3.57385 -0.2463,0.83801 5.496952,-5.9959 5.639037,-6.70989 7.790331,-9.50986 4.850261,-6.30727 0,0 0,0 0,0 m 19.70266085,-23.4271 c -2.78818605,3.02898 -7.14912355,8.21219 -9.69140285,11.52339 -2.566359,3.34258 -0.2124523,0.78004 5.1650508,-5.61866 5.2830414,-6.2863 7.2915207,-8.90868 4.52635205,-5.90473 0,0 0,0 0,0 M 10.547904,723.52568 c 0,0 -12.8113789,-7.44248 -12.8113789,-7.44248 0,0 12.1112168,7.5167 12.1112168,7.5167 0,0 12.6063361,7.824 12.6063361,7.824 0,0 -8.302833,10.32035 -8.302833,10.32035 0,0 -8.5603835,10.64048 -8.5603835,10.64048 0,0 9.2865765,-10.71399 9.2865765,-10.71399 0,0 9.01049,-10.39548 9.01049,-10.39548 0,0 -13.34004,-7.74959 -13.34004,-7.74959 0,0 1.6e-5,10e-6 1.6e-5,10e-6 M -147.79665,906.17341 c 0,0 -10.40488,-12.27006 -10.40488,-12.27006 0,0 -12.20604,13.66098 -12.20604,13.66098 0,0 -12.60677,14.10947 -12.60677,14.10947 0,0 10.18114,13.32375 10.18114,13.32375 0,0 10.66268,13.9539 10.66268,13.9539 0,0 12.84066,-15.22654 12.84066,-15.22654 0,0 12.41384,-14.7204 12.41384,-14.7204 0,0 -10.88063,-12.8311 -10.88063,-12.8311 0,0 0,0 0,0 m 27.49537,-31.65494 c 0,0 -10.60857,-11.15993 -10.60857,-11.15993 0,0 -11.33382,12.6848 -11.33382,12.6848 0,0 -11.69206,13.08573 -11.69206,13.08573 0,0 10.43964,12.09317 10.43964,12.09317 0,0 10.91417,12.64286 10.91417,12.64286 0,0 11.8678,-14.07291 11.8678,-14.07291 0,0 11.48819,-13.62276 11.48819,-13.62276 0,0 -11.07535,-11.65096 -11.07535,-11.65096 0,0 0,0 0,0 m 25.539069,-29.40269 c 0,0 -10.758269,-10.17298 -10.758269,-10.17298 0,0 -10.55187,11.80964 -10.55187,11.80964 0,0 -10.8734,12.16949 -10.8734,12.16949 0,0 10.63446,11.00293 10.63446,11.00293 0,0 11.09973,11.4843 11.09973,11.4843 0,0 11.001454,-13.04559 11.001454,-13.04559 0,0 10.662335,-12.64346 10.662335,-12.64346 0,0 -11.21444,-10.60433 -11.21444,-10.60433 0,0 0,0 0,0 m 23.784383,-27.38255 c 0,0 -10.863403,-9.2922 -10.863403,-9.2922 0,0 -9.848129,11.02201 -9.848129,11.02201 0,0 -10.13782,11.34623 -10.13782,11.34623 0,0 10.776858,10.03308 10.776858,10.03308 0,0 11.231313,10.45617 11.231313,10.45617 0,0 10.226624,-12.12679 10.226624,-12.12679 0,0 9.922439,-11.76609 9.922439,-11.76609 0,0 -11.307882,-9.67241 -11.307882,-9.67241 0,0 0,0 0,0 m 22.204525,-25.56368 c 0,0 -10.931646,-8.50341 -10.931646,-8.50341 0,0 -9.212516,10.31063 -9.212516,10.31063 0,0 -9.47443,10.60376 -9.47443,10.60376 0,0 10.875944,9.1671 10.875944,9.1671 0,0 11.318587,9.5402 11.318587,9.5402 0,0 9.530859,-11.30175 9.530859,-11.30175 0,0 9.256973,-10.97698 9.256973,-10.97698 0,0 -11.363771,-8.83955 -11.363771,-8.83955 0,0 0,0 0,0 m 20.77702,-23.92022 c 0,0 -10.969298,-7.79466 -10.969298,-7.79466 0,0 -8.636511,9.66597 -8.636511,9.66597 0,0 -8.874088,9.93186 -8.874088,9.93186 0,0 10.939178,8.39115 10.939178,8.39115 0,0 11.369392,8.72116 11.369392,8.72116 0,0 8.903759,-10.55813 8.903759,-10.55813 0,0 8.656274,-10.26467 8.656274,-10.26467 0,0 -11.388706,-8.09268 -11.388706,-8.09268 0,0 0,0 0,0 m 19.4828858,-22.43031 c 0,0 -10.9815468,-7.15585 -10.9815468,-7.15585 0,0 -8.112886,9.07992 -8.112886,9.07992 0,0 -8.329051,9.32186 -8.329051,9.32186 0,0 10.972672,7.69361 10.972672,7.69361 0,0 11.390136,7.98631 11.390136,7.98631 0,0 8.3365748,-9.88556 8.3365748,-9.88556 0,0 8.1122051,-9.61951 8.1122051,-9.61951 0,0 -11.3881041,-7.42078 -11.3881041,-7.42078 0,0 0,0 0,0 M 9.7926141,724.74363 c 0,0 -10.9726839,-6.57844 -10.9726839,-6.57844 0,0 -7.6354783,8.54561 -7.6354783,8.54561 0,0 -7.8327279,8.76638 -7.8327279,8.76638 0,0 10.9814652,7.06462 10.9814652,7.06462 0,0 11.3860751,7.32491 11.3860751,7.32491 0,0 7.8219097,-9.27527 7.8219097,-9.27527 0,0 7.617864,-9.03331 7.617864,-9.03331 0,0 -11.3664239,-6.8145 -11.3664239,-6.8145 0,0 0,0 0,0 M -202.69724,898.59273 c -3.10134,-3.68443 -0.83989,-0.38405 5.13824,7.4876 6.15069,8.09887 8.85699,11.32653 5.89122,7.01645 -2.92209,-4.24661 -7.88559,-10.76908 -11.02946,-14.50405 0,0 0,0 0,0 m 150.384507,-149.2499 c 0,0 -11.127962,-7.87571 -11.127962,-7.87571 0,0 -31.296193,32.60954 -31.296193,32.60954 0,0 -34.378252,35.82093 -34.378252,35.82093 0,0 -50.916,-47.8645 -50.916,-47.8645 0,0 -41.41158,-38.92971 -41.41158,-38.92971 0,0 21.88208,-18.03612 21.88208,-18.03612 0,0 20.74327,-17.09746 20.74327,-17.09746 0,0 8.28576,6.38861 8.28576,6.38861 0,0 8.60024,6.63107 8.60024,6.63107 0,0 -10.02049,8.72919 -10.02049,8.72919 0,0 -10.29345,8.96699 -10.29345,8.96699 0,0 16.63238,14.0809 16.63238,14.0809 0,0 17.93468,15.18342 17.93468,15.18342 0,0 30.81804,-28.94312 30.81804,-28.94312 0,0 28.370506,-26.64448 28.370506,-26.64448 0,0 -27.721916,-17.9948 -27.721916,-17.9948 0,0 -24.99166,-16.22255 -24.99166,-16.22255 0,0 -9.11037,7.42465 -9.11037,7.42465 0,0 -9.33356,7.60654 -9.33356,7.60654 0,0 -7.76282,-5.65941 -7.76282,-5.65941 0,0 -7.50164,-5.46901 -7.50164,-5.46901 0,0 -38.90955,30.92736 -38.90955,30.92736 0,0 -43.03706,34.20813 -43.03706,34.20813 0,0 7.03183,7.07402 7.03183,7.07402 0,0 7.29882,7.34263 7.29882,7.34263 0,0 -11.6512,9.73163 -11.6512,9.73163 0,0 -11.98444,10.00996 -11.98444,10.00996 0,0 38.2975,44.60074 38.2975,44.60074 0,0 47.48557,55.30103 47.48557,55.30103 0,0 13.49907,-13.91886 13.49907,-13.91886 0,0 13.04662,-13.45235 13.04662,-13.45235 0,0 10.50958,11.27497 10.50958,11.27497 5.98832,6.42443 11.53505,11.90061 12.186,12.01867 0.749,0.13583 19.43093,-20.20341 48.732689,-52.99392 0,0 41.67246,-46.63409 41.67246,-46.63409 0,0 -11.578952,-8.19489 -11.578952,-8.19489 0,0 0,0 0,0 m -123.111307,64.75348 c -0.56494,-0.0887 -0.8607,-0.65262 -0.658,-1.25209 0.20232,-0.59835 0.82808,-1.01544 1.39135,-0.92785 0.56371,0.0876 0.86137,0.64905 0.66072,1.24854 -0.20103,0.60065 -0.8287,1.02022 -1.39407,0.9314 0,0 0,0 0,0 m -19.30298,-20.20138 c -0.5334,-0.0774 -0.79616,-0.59574 -0.58461,-1.15109 0.21115,-0.55434 0.81854,-0.94472 1.35045,-0.86836 0.53231,0.0764 0.79687,0.59258 0.58719,1.14793 -0.21006,0.55636 -0.81924,0.94894 -1.35303,0.87152 0,0 0,0 0,0 m -17.7093,-18.53352 c -0.50503,-0.0675 -0.73911,-0.54583 -0.52084,-1.06215 0.21789,-0.51541 0.80773,-0.88196 1.31144,-0.81532 0.50407,0.0667 0.73985,0.54302 0.52329,1.05931 -0.21695,0.51721 -0.8085,0.88573 -1.31389,0.81816 0,0 0,0 0,0 m 66.90332,-60.07382 c -0.48536,-0.0422 -0.7621,-0.42541 -0.61549,-0.85106 0.14636,-0.42496 0.6618,-0.73818 1.14591,-0.69664 0.48443,0.0416 0.76245,0.4233 0.61732,0.84889 -0.14536,0.42628 -0.66207,0.74101 -1.14774,0.69881 0,0 0,0 0,0 m 19.91099,-17.87847 c -0.47873,-0.0353 -0.76603,-0.3922 -0.63888,-0.79252 0.12693,-0.3997 0.62111,-0.69785 1.09863,-0.6631 0.47783,0.0348 0.76628,0.39026 0.64055,0.79052 -0.12592,0.40089 -0.62126,0.70044 -1.1003,0.6651 0,0 0,0 0,0 m -103.11946,60.88826 c -0.4794,-0.059 -0.68842,-0.5018 -0.46513,-0.98339 0.22291,-0.48079 0.79603,-0.82599 1.27424,-0.7678 0.47854,0.0582 0.68919,0.49929 0.46746,0.98085 -0.2221,0.48238 -0.79684,0.82935 -1.27657,0.77034 0,0 0,0 0,0 m 85.41375,-73.41754 c -0.45625,-0.0302 -0.71797,-0.36351 -0.58204,-0.74021 0.13572,-0.37614 0.61881,-0.6592 1.07395,-0.62951 0.45544,0.0297 0.71828,0.36175 0.58365,0.73839 -0.13483,0.37722 -0.61903,0.66154 -1.07556,0.63133 0,0 0,0 0,0 M -20.545286,704.996 c -3.352493,-1.83696 -0.775035,-0.16259 5.824812,3.78044 6.7460642,4.03038 9.6305346,5.61498 6.3076003,3.46193 -3.2853013,-2.12866 -8.7444593,-5.38598 -12.1324123,-7.24237 0,0 0,0 0,0 M -171.61572,878.08453 c 0,0 -9.39975,-11.08474 -9.39975,-11.08474 0,0 -11.94878,12.56835 -11.94878,12.56835 0,0 -12.32125,12.96011 -12.32125,12.96011 0,0 9.16744,11.99714 9.16744,11.99714 0,0 9.57813,12.53459 9.57813,12.53459 0,0 12.56402,-13.92448 12.56402,-13.92448 0,0 12.16775,-13.4853 12.16775,-13.4853 0,0 -9.80756,-11.56567 -9.80756,-11.56567 0,0 0,0 0,0 m 27.00379,-29.14021 c 0,0 -9.6185,-10.1184 -9.6185,-10.1184 0,0 -11.13495,11.7123 -11.13495,11.7123 0,0 -11.46973,12.06446 -11.46973,12.06446 0,0 9.43649,10.93112 9.43649,10.93112 0,0 9.8436,11.40272 9.8436,11.40272 0,0 11.65925,-12.92174 11.65925,-12.92174 0,0 11.30469,-12.52879 11.30469,-12.52879 0,0 -10.02085,-10.54167 -10.02085,-10.54167 0,0 0,0 0,0 M -33.786233,729.3506 c 0,0 -10.105243,-6.58484 -10.105243,-6.58484 0,0 -8.088817,8.50823 -8.088817,8.50823 0,0 -8.295416,8.72554 -8.295416,8.72554 0,0 10.074993,7.06419 10.074993,7.06419 0,0 10.441854,7.32141 10.441854,7.32141 0,0 8.325525,-9.22703 8.325525,-9.22703 0,0 8.110821,-8.98908 8.110821,-8.98908 0,0 -10.463717,-6.81842 -10.463717,-6.81842 0,0 0,0 0,0 m 18.308668,-19.75717 c 0,0 -10.121761,-6.06829 -10.121761,-6.06829 0,0 -7.631337,8.02703 -7.631337,8.02703 0,0 -7.820555,8.22606 -7.820555,8.22606 0,0 10.109001,6.50334 10.109001,6.50334 0,0 10.465965,6.73299 10.465965,6.73299 0,0 7.832473,-8.68059 7.832473,-8.68059 0,0 7.6364435,-8.46334 7.6364435,-8.46334 0,0 -10.4702295,-6.2772 -10.4702295,-6.2772 0,0 0,0 0,0 M -223.14888,871.69827 c -2.81997,-3.33344 -0.78168,-0.34247 4.62651,6.77872 5.55651,7.31648 8.00914,10.22696 5.34476,6.33377 -2.62708,-3.83869 -7.11452,-9.73557 -9.97127,-13.11249 0,0 0,0 0,0 M -56.212096,713.31436 c 0,0 -10.313536,-6.69471 -10.313536,-6.69471 0,0 -8.891409,8.81753 -8.891409,8.81753 0,0 -9.132722,9.05683 -9.132722,9.05683 0,0 9.384501,6.89369 9.384501,6.89369 5.30666,3.89819 10.280239,7.29532 10.956121,7.47808 0.962051,0.26013 3.186543,-1.78692 10.087964,-9.26858 0,0 8.611619,-9.33563 8.611619,-9.33563 0,0 -10.702538,-6.94721 -10.702538,-6.94721 0,0 0,0 0,0 m 12.782862,-21.9788 c -3.110695,-1.69882 -0.7304,-0.14731 5.375948,3.50088 6.236393,3.72588 8.907494,5.18839 5.844781,3.19727 -3.029363,-1.96943 -8.078389,-4.98203 -11.220729,-6.69815 0,0 0,0 0,0 M -193.16424,852.67323 c 0,0 -8.53353,-10.06325 -8.53353,-10.06325 0,0 -11.68475,11.61604 -11.68475,11.61604 0,0 -12.03147,11.96071 -12.03147,11.96071 0,0 8.29792,10.85924 8.29792,10.85924 0,0 8.65103,11.32131 8.65103,11.32131 0,0 12.27747,-12.79976 12.27747,-12.79976 0,0 11.90908,-12.41569 11.90908,-12.41569 0,0 -8.88575,-10.4786 -8.88575,-10.4786 0,0 0,0 0,0 m 74.4574,-75.76588 c 0,0 -9.08373,-7.76993 -9.08373,-7.76993 0,0 -9.61078,9.55426 -9.61078,9.55426 0,0 -9.86887,9.81084 -9.86887,9.81084 0,0 8.96569,8.34692 8.96569,8.34692 0,0 9.3096,8.66708 9.3096,8.66708 0,0 9.99091,-10.41593 9.99091,-10.41593 0,0 9.71988,-10.13336 9.71988,-10.13336 0,0 -9.4227,-8.05988 -9.4227,-8.05988 0,0 0,0 0,0 m 21.797995,-22.18106 c 0,0 -9.192475,-7.15056 -9.192475,-7.15056 0,0 -9.04106,8.98788 -9.04106,8.98788 0,0 -9.2764,9.22185 -9.2764,9.22185 0,0 9.1022,7.67205 9.1022,7.67205 0,0 9.44023,7.95696 9.44023,7.95696 0,0 9.369339,-9.76791 9.369339,-9.76791 0,0 9.123046,-9.51114 9.123046,-9.51114 0,0 -9.52488,-7.40913 -9.52488,-7.40913 0,0 0,0 0,0 m 20.510487,-20.87093 c 0,0 -9.273098,-6.58935 -9.273098,-6.58935 0,0 -8.520531,8.47042 -8.520531,8.47042 0,0 -8.735723,8.68435 -8.735723,8.68435 0,0 9.206388,7.06197 9.206388,7.06197 0,0 9.537738,7.31615 9.537738,7.31615 0,0 8.804024,-9.17855 8.804024,-9.17855 0,0 8.579542,-8.94451 8.579542,-8.94451 0,0 -9.59834,-6.82048 -9.59834,-6.82048 0,0 0,0 0,0 m 37.589279,-38.24985 c 0,0 -9.366116,-5.61526 -9.366116,-5.61526 0,0 -7.605802,7.56108 -7.605802,7.56108 0,0 -7.787099,7.7413 -7.787099,7.7413 0,0 9.336529,6.0064 9.336529,6.0064 0,0 9.653044,6.21001 9.653044,6.21001 0,0 7.816724,-8.14925 7.816724,-8.14925 0,0 7.628716,-7.95324 7.628716,-7.95324 0,0 -9.675996,-5.80104 -9.675996,-5.80104 0,0 0,0 0,0 M -241.70566,847.2956 c -2.57614,-3.03006 -0.73039,-0.30675 4.18564,6.16639 5.04445,6.64224 7.2783,9.27987 4.87274,5.74563 -2.37347,-3.4871 -6.4502,-8.84427 -9.05838,-11.91202 0,0 0,0 0,0 M -64.640263,678.67377 c -2.894606,-1.57558 -0.6901,-0.13381 4.976101,3.25142 5.782374,3.45463 8.26334,4.80854 5.431977,2.96162 -2.801674,-1.82755 -7.485108,-4.62202 -10.408078,-6.21304 0,0 0,0 0,0 M -212.7521,829.57405 c 0,0 -7.78175,-9.17671 -7.78175,-9.17671 0,0 -11.41886,10.78032 -11.41886,10.78032 0,0 -11.74213,11.08551 -11.74213,11.08551 0,0 7.5465,9.87587 7.5465,9.87587 0,0 7.85229,10.27604 7.85229,10.27604 0,0 11.98751,-11.82068 11.98751,-11.82068 0,0 11.64449,-11.48244 11.64449,-11.48244 0,0 -8.08805,-9.53791 -8.08805,-9.53791 0,0 0,0 0,0 m 73.14384,-70.5451 c 0,0 -8.3536,-7.14541 -8.3536,-7.14541 0,0 -9.47116,8.94154 -9.47116,8.94154 0,0 -9.71488,9.17163 -9.71488,9.17163 0,0 8.22674,7.65897 8.22674,7.65897 0,0 8.52864,7.94003 8.52864,7.94003 0,0 9.84615,-9.70912 9.84615,-9.70912 0,0 9.5903,-9.45683 9.5903,-9.45683 0,0 -8.65219,-7.40081 -8.65219,-7.40081 0,0 0,0 0,0 m 21.53268,-20.76765 c 0,0 -8.47457,-6.59213 -8.47457,-6.59213 0,0 -8.9317,8.43224 -8.9317,8.43224 0,0 -9.15478,8.64285 -9.15478,8.64285 0,0 8.37381,7.05811 8.37381,7.05811 0,0 8.67174,7.30922 8.67174,7.30922 0,0 9.25872,-9.12986 9.25872,-9.12986 0,0 9.02527,-8.89968 9.02527,-8.89968 0,0 -8.76849,-6.82075 -8.76849,-6.82075 0,0 0,0 0,0 m 20.310501,-19.58889 c 0,0 -8.568881,-6.08895 -8.568881,-6.08895 0,0 -8.43706,7.96526 -8.43706,7.96526 0,0 -8.64175,8.15851 -8.64175,8.15851 0,0 8.49047,6.51282 8.49047,6.51282 0,0 8.78363,6.73769 8.78363,6.73769 0,0 8.722327,-8.60095 8.722327,-8.60095 0,0 8.508759,-8.39034 8.508759,-8.39034 0,0 -8.857495,-6.29404 -8.857495,-6.29404 0,0 0,0 0,0 m 19.189493,-18.5077 c 0,0 -8.640301,-5.63024 -8.640301,-5.63024 0,0 -7.982391,7.53601 -7.982391,7.53601 0,0 -8.170682,7.71378 -8.170682,7.71378 0,0 8.581093,6.01672 8.581093,6.01672 0,0 8.868854,6.21849 8.868854,6.21849 0,0 8.231238,-8.11669 8.231238,-8.11669 0,0 8.035345,-7.92352 8.035345,-7.92352 0,0 -8.923156,-5.81455 -8.923156,-5.81455 0,0 0,0 0,0 m 18.158804,-17.51364 c 0,0 -8.692039,-5.21113 -8.692039,-5.21113 0,0 -7.563513,7.14057 -7.563513,7.14057 0,0 -7.737095,7.30443 -7.737095,7.30443 0,0 8.649333,5.56431 8.649333,5.56431 0,0 8.931285,5.74569 8.931285,5.74569 0,0 7.780483,-7.6722 7.780483,-7.6722 0,0 7.600371,-7.4946 7.600371,-7.4946 0,0 -8.968825,-5.37707 -8.968825,-5.37707 0,0 0,0 0,0 m -198.202468,142.4027 c -2.36343,-2.76608 -0.68493,-0.27589 3.80319,5.6338 4.60005,6.05708 6.64386,8.45832 4.46216,5.23536 -2.15391,-3.18191 -5.87383,-8.07021 -8.26535,-10.86916 0,0 0,0 0,0 m 174.263899,-158.1488 c -2.700689,-1.46517 -0.653566,-0.1218 4.618417,3.0279 5.376188,3.21196 7.686987,4.46884 5.062203,2.75088 -2.598245,-1.70057 -6.954403,-4.29976 -9.68062,-5.77878 0,0 0,0 0,0 M -230.63525,808.48516 c 0,0 -7.12512,-8.40237 -7.12512,-8.40237 0,0 -11.15449,10.04231 -11.15449,10.04231 0,0 -11.45642,10.31414 -11.45642,10.31414 0,0 6.89271,9.02027 6.89271,9.02027 0,0 7.15928,9.36912 7.15928,9.36912 0,0 11.69854,-10.9624 11.69854,-10.9624 0,0 11.37864,-10.66264 11.37864,-10.66264 0,0 -7.39314,-8.71843 -7.39314,-8.71843 0,0 0,0 0,0 m 71.78693,-65.91355 c 0,0 -7.70809,-6.59325 -7.70809,-6.59325 0,0 -9.32334,8.39374 -9.32334,8.39374 0,0 -9.55366,8.6011 -9.55366,8.6011 0,0 7.57552,7.05268 7.57552,7.05268 0,0 7.842,7.30078 7.842,7.30078 0,0 9.69084,-9.08104 9.69084,-9.08104 0,0 9.4492,-8.85461 9.4492,-8.85461 0,0 -7.97247,-6.8194 -7.97247,-6.8194 0,0 0,0 0,0 m 78.363412,-71.95196 c 0,0 -8.088198,-4.84911 -8.088198,-4.84911 0,0 -7.508149,6.75953 -7.508149,6.75953 0,0 -7.674275,6.9091 -7.674275,6.9091 0,0 8.035304,5.16929 8.035304,5.16929 0,0 8.287552,5.33157 8.287552,5.33157 0,0 7.728319,-7.24202 7.728319,-7.24202 0,0 7.555886,-7.08043 7.555886,-7.08043 0,0 -8.336439,-4.99793 -8.336439,-4.99793 0,0 0,0 0,0 M -274.09866,804.69792 c -2.17672,-2.53497 -0.64438,-0.24904 3.46936,5.1677 4.21189,5.54597 6.08954,7.74106 4.10272,4.78979 -1.9626,-2.91528 -5.37059,-7.39367 -7.57208,-9.95749 0,0 0,0 0,0 m 171.3713,-148.76001 c -2.526,-1.36587 -0.62033,-0.11109 4.297193,2.82684 5.011346,2.99399 7.16923,4.16381 4.729653,2.56168 -2.415761,-1.58648 -6.477786,-4.01017 -9.026846,-5.38852 0,0 0,0 0,0 m -144.29959,133.21718 c 0,0 -6.54822,-7.72207 -6.54822,-7.72207 0,0 -10.89401,9.38687 -10.89401,9.38687 0,0 -11.17648,9.63027 -11.17648,9.63027 0,0 6.32035,8.27124 6.32035,8.27124 0,0 6.55413,8.57717 6.55413,8.57717 0,0 11.41359,-10.20525 11.41359,-10.20525 0,0 11.11473,-9.93803 11.11473,-9.93803 0,0 -6.78409,-8.0002 -6.78409,-8.0002 0,0 0,0 0,0 m 70.40942,-61.78269 c 0,0 -7.1346,-6.10272 -7.1346,-6.10272 0,0 -9.17037,7.90169 -9.17037,7.90169 0,0 -9.38817,8.08937 -9.38817,8.08937 0,0 6.99867,6.51565 6.99867,6.51565 0,0 7.23506,6.73572 7.23506,6.73572 0,0 9.52879,-8.52 9.52879,-8.52 0,0 9.30044,-8.31581 9.30044,-8.31581 0,0 -7.36982,-6.3039 -7.36982,-6.3039 0,0 0,0 0,0 m 77.445187,-67.95641 c 0,0 -7.545167,-4.52354 -7.545167,-4.52354 0,0 -7.44263,6.41297 -7.44263,6.41297 0,0 -7.6016,6.54996 -7.6016,6.54996 0,0 7.48442,4.81489 7.48442,4.81489 0,0 7.71098,4.96065 7.71098,4.96065 0,0 7.663841,-6.85247 7.663841,-6.85247 0,0 7.498811,-6.70493 7.498811,-6.70493 0,0 -7.768655,-4.65753 -7.768655,-4.65753 0,0 0,0 0,0 M -288.31889,785.99794 c -2.01191,-2.33149 -0.60803,-0.22556 3.1763,4.75743 3.87086,5.09692 5.60238,7.11117 3.78622,4.39847 -1.79493,-2.681 -4.92864,-6.79896 -6.96252,-9.1559 0,0 0,0 0,0 m 168.42987,-140.30458 c -2.36806,-1.27625 -0.58997,-0.1015 4.00767,2.64532 4.68242,2.79747 6.70237,3.88891 4.42947,2.39118 -2.25146,-1.48359 -6.04817,-3.74898 -8.43714,-5.0365 0,0 0,0 0,0 M -262.10631,771.3726 c 0,0 -6.03866,-7.12115 -6.03866,-7.12115 0,0 -10.63897,8.80169 -10.63897,8.80169 0,0 -10.9037,9.02072 -10.9037,9.02072 0,0 5.81643,7.61177 5.81643,7.61177 0,0 6.02257,7.88156 6.02257,7.88156 0,0 11.13467,-9.53343 11.13467,-9.53343 0,0 10.85498,-9.29395 10.85498,-9.29395 0,0 -6.24732,-7.36721 -6.24732,-7.36721 0,0 0,0 0,0 m 69.02798,-58.08025 c 0,0 -6.62283,-5.66496 -6.62283,-5.66496 0,0 -9.0145,7.45777 -9.0145,7.45777 0,0 -9.22068,7.62833 -9.22068,7.62833 0,0 6.48529,6.0377 6.48529,6.0377 0,0 6.69595,6.23382 6.69595,6.23382 0,0 9.36288,-8.01643 9.36288,-8.01643 0,0 9.14688,-7.8315 9.14688,-7.8315 0,0 -6.83299,-5.84473 -6.83299,-5.84473 0,0 0,0 0,0 m 20.6102,-17.34146 c 0,0 -6.7616,-5.25966 -6.7616,-5.25966 0,0 -8.55505,7.07765 -8.55505,7.07765 0,0 -8.74557,7.23528 -8.74557,7.23528 0,0 6.6454,5.60127 6.6454,5.60127 0,0 6.85543,5.77829 6.85543,5.77829 0,0 8.8655,-7.59058 8.8655,-7.59058 0,0 8.66639,-7.4201 8.66639,-7.4201 0,0 -6.9705,-5.42215 -6.9705,-5.42215 0,0 0,0 0,0 m 55.85129,-46.99338 c 0,0 -7.05503,-4.22969 -7.05503,-4.22969 0,0 -7.3693,6.09666 -7.3693,6.09666 0,0 -7.52143,6.22254 -7.52143,6.22254 0,0 6.9883,4.49573 6.9883,4.49573 0,0 7.19257,4.62714 7.19257,4.62714 0,0 7.58989,-6.49842 7.58989,-6.49842 0,0 7.43197,-6.3632 7.43197,-6.3632 0,0 -7.25697,-4.35076 -7.25697,-4.35076 0,0 0,0 0,0 m -175.2851,106.63041 c 0,0 11.50943,-9.38876 11.50943,-9.38876 0,0 -12.10486,9.45188 -12.10486,9.45188 0,0 -12.43438,9.70918 -12.43438,9.70918 0,0 6.3754,8.03834 6.3754,8.03834 0,0 6.62576,8.35399 6.62576,8.35399 0,0 -6.01164,-8.41616 -6.01164,-8.41616 0,0 -5.78643,-8.10088 -5.78643,-8.10088 0,0 11.82672,-9.64759 11.82672,-9.64759 0,0 0,0 0,0 m 159.99801,-117.25276 c 0,0 -7.54646,-4.50196 -7.54646,-4.50196 0,0 -8.34275,6.77653 -8.34275,6.77653 0,0 -8.5399,6.93666 -8.5399,6.93666 0,0 8.51962,-6.57665 8.51962,-6.57665 0,0 8.33715,-6.43581 8.33715,-6.43581 0,0 7.30718,4.37002 7.30718,4.37002 4.11374,2.4602 7.64803,4.40752 7.79091,4.28974 0.14282,-0.11774 -3.27408,-2.32212 -7.52575,-4.85853 0,0 0,0 0,0 m -144.12093,116.62385 c 0,0 -5.58635,-6.58776 -5.58635,-6.58776 0,0 -10.39043,8.27675 -10.39043,8.27675 0,0 -10.63897,8.47472 -10.63897,8.47472 0,0 5.37046,7.02815 5.37046,7.02815 0,0 5.55317,7.26725 5.55317,7.26725 0,0 10.86306,-8.93414 10.86306,-8.93414 0,0 10.60087,-8.71851 10.60087,-8.71851 0,0 -5.77181,-6.80646 -5.77181,-6.80646 0,0 0,0 0,0 m 23.77926,-19.24238 c 0,0 -5.80849,-6.11036 -5.80849,-6.11036 0,0 -9.83798,7.83668 -9.83798,7.83668 0,0 -10.06684,8.01898 -10.06684,8.01898 0,0 5.62214,6.51264 5.62214,6.51264 0,0 5.80801,6.72793 5.80801,6.72793 0,0 10.25996,-8.43814 10.25996,-8.43814 0,0 10.01919,-8.24011 10.01919,-8.24011 0,0 -5.99599,-6.30762 -5.99599,-6.30762 0,0 0,0 0,0 m 101.8047,-82.3812 c 0,0 -6.52603,-4.25253 -6.52603,-4.25253 0,0 -7.64037,6.08612 -7.64037,6.08612 0,0 -7.79668,6.21063 -7.79668,6.21063 0,0 6.44114,4.51627 6.44114,4.51627 0,0 6.62765,4.64704 6.62765,4.64704 0,0 7.88397,-6.48404 7.88397,-6.48404 0,0 7.72143,-6.35036 7.72143,-6.35036 0,0 -6.71111,-4.37313 -6.71111,-4.37313 0,0 0,0 0,0 m 17.5025,-14.16316 c 0,0 -6.61116,-3.96359 -6.61116,-3.96359 0,0 -7.29002,5.80703 -7.29002,5.80703 0,0 -7.43564,5.92304 -7.43564,5.92304 0,0 6.53993,4.20728 6.53993,4.20728 0,0 6.72472,4.32616 6.72472,4.32616 0,0 7.50876,-6.17545 7.50876,-6.17545 0,0 7.35762,-6.05115 7.35762,-6.05115 0,0 -6.79421,-4.07332 -6.79421,-4.07332 0,0 0,0 0,0 m -129.83545,92.87342 c -3.26464,2.45514 -8.53555,6.64487 -11.71502,9.31389 -3.20471,2.69023 -0.46065,0.62431 6.03207,-4.53958 6.39681,-5.0876 8.9249,-7.21239 5.68295,-4.77431 0,0 0,0 0,0 m 101.88922,-81.00593 c -2.56268,1.91373 -6.65273,5.16482 -9.08994,7.22686 -2.45423,2.07644 -0.3075,0.47158 4.72545,-3.5313 4.9674,-3.95074 6.91147,-5.59757 4.36449,-3.69556 0,0 0,0 0,0"
         style="fill:#2c2268" />
      <path
         inkscape:connector-curvature="0"
         id="path3010"
         d="m -247.56626,842.94275 c 0,0 -58.50996,-77.4639 -58.50996,-77.4639 0,0 91.80389,-72.88672 91.80389,-72.88672 0,0 74.87128,-59.44326 74.87128,-59.44326 0,0 70.36622,41.87438 70.36622,41.87438 0,0 94.288637,56.11042 94.288637,56.11042 0,0 -80.698249,96.31726 -80.698249,96.31726 0,0 -107.190118,127.9366 -107.190118,127.9366 0,0 -84.9317,-112.44478 -84.9317,-112.44478 0,0 0,0 0,0 m 112.94025,75.66816 c -0.85476,0.20267 -6.18098,-5.21623 -12.73834,-12.9352 0,0 -10.77175,-12.67991 -10.77175,-12.67991 0,0 -12.63085,14.12249 -12.63085,14.12249 -7.61176,8.51066 -13.63109,14.52923 -14.44153,14.4251 -0.75883,-0.0975 3.82249,6.69764 10.35105,15.32615 0,0 12.37846,16.36004 12.37846,16.36004 0,0 14.94341,-17.82641 14.94341,-17.82641 7.97091,-9.50793 13.71058,-16.98218 12.90956,-16.79225 0,0 -1e-5,-10e-6 -1e-5,-10e-6 m 27.61002,-32.82767 c -0.82273,0.19526 -6.20794,-4.71481 -12.88429,-11.72644 0,0 -10.98192,-11.53343 -10.98192,-11.53343 0,0 -11.72919,13.11435 -11.72919,13.11435 0,0 -12.11309,13.54356 -12.11309,13.54356 0,0 10.80057,12.53351 10.80057,12.53351 6.5738,7.62856 11.19545,13.82941 11.03269,14.83351 -0.15295,0.94349 6.10822,-5.88838 13.76408,-15.00554 7.49572,-8.92647 12.88214,-15.94251 12.11115,-15.75952 0,0 0,0 0,0 m 25.755949,-30.29843 c -0.674174,0.34686 -5.971067,-4.13278 -13.604266,-11.48413 -10.697883,-10.30288 -11.802533,-11.64284 -10.681663,-12.89117 1.11732,-1.24436 2.51232,-0.23699 13.424791,9.73794 7.781421,7.11288 12.597828,12.11822 12.353275,12.86253 -0.218854,0.66609 5.097109,-5.33042 11.693798,-13.18407 6.468484,-7.70102 11.198001,-13.65278 10.623166,-13.36097 -0.643972,0.32689 -5.963167,-3.75144 -13.667123,-10.46063 -10.810101,-9.41425 -11.937487,-10.64251 -10.890453,-11.8086 1.043818,-1.16251 2.442054,-0.24453 13.449014,8.86753 7.839524,6.48991 12.709536,11.05983 12.497976,11.74905 -0.189316,0.61674 4.773776,-4.9713 10.921642,-12.29061 6.032464,-7.18192 10.434639,-12.73308 9.884538,-12.45742 -0.616253,0.30881 -5.942717,-3.41128 -13.691127,-9.54624 -10.884754,-8.61823 -12.029636,-9.74623 -11.049381,-10.83795 0.977342,-1.08847 2.375479,-0.25059 13.441396,8.08832 7.872815,5.9327 12.77845,10.11347 12.596055,10.75321 -0.163205,0.57244 4.481724,-4.64767 10.225063,-11.48538 5.639088,-6.71358 9.746043,-11.90311 9.218721,-11.64214 -1.286266,0.63659 -25.598614,-16.9687 -25.811943,-18.62379 -0.09201,-0.71386 3.680898,-5.56874 8.885044,-11.44699 0,0 8.785387,-9.92335 8.785387,-9.92335 0,0 -11.379318,-7.53404 -11.379318,-7.53404 -6.391401,-4.23159 -11.00945,-7.70238 -11.089362,-8.32237 -0.183712,-1.42531 16.563637,-19.24935 17.811207,-19.00239 0.512655,0.10147 -4.269818,-2.92014 -10.506382,-6.64211 -6.106562,-3.64439 -10.815815,-6.29356 -10.579393,-5.95501 0.563567,0.80699 -16.518589,17.49609 -18.132386,17.67792 -1.572336,0.17716 -21.555195,-12.8266 -21.609232,-14.01555 -0.05513,-1.21311 16.572327,-17.0533 17.658255,-16.85547 0.457471,0.0833 -3.646662,-2.52132 -9.023281,-5.73008 -5.272439,-3.14658 -9.356273,-5.43378 -9.167063,-5.13724 0.212199,0.33257 -2.907745,3.41654 -8.184989,8.08327 -7.804095,6.90125 -8.840695,7.66289 -9.693995,7.11042 -0.85049,-0.55065 -0.0346,-1.44988 7.60892,-8.40743 5.166492,-4.70282 8.652299,-7.54766 9.137483,-7.46289 0.433684,0.0758 -3.383501,-2.35221 -8.395366,-5.34329 -4.918057,-2.93509 -8.735487,-5.06837 -8.565987,-4.78981 0.19009,0.3124 -2.91415,3.23743 -8.14133,7.6649 -7.72519,6.54332 -8.74505,7.26619 -9.54026,6.75132 -0.7927,-0.51323 0.0213,-1.36444 7.59534,-7.96115 5.12283,-4.46177 8.56795,-7.16396 9.0289,-7.08675 0.41202,0.069 -3.14689,-2.19977 -7.8299,-4.99459 -4.59825,-2.74422 -8.17485,-4.73852 -8.02293,-4.47625 0.36592,0.63169 -16.12353,14.06605 -17.50947,14.24329 -1.38491,0.17711 -16.0802,-9.1667 -15.62317,-9.90012 0.1898,-0.30459 -3.68387,2.63014 -8.6663,6.56739 -6.12452,4.83976 -8.79908,7.17027 -7.94377,6.92779 0.77108,-0.2186 1.01867,-0.1489 0.62004,0.17488 -0.36544,0.29654 -1.01726,0.52132 -1.44834,0.49895 -1.07045,-0.0555 -82.45701,64.60918 -82.48204,65.63195 -0.0101,0.41269 -0.39256,1.04375 -0.85032,1.40204 -0.50055,0.39192 -0.57541,0.15485 -0.18775,-0.5924 0.4287,-0.82634 -3.16947,1.80707 -10.88818,7.97458 -6.47669,5.17509 -11.44615,9.29368 -10.95416,9.08119 1.18137,-0.51026 13.52594,14.21504 13.09647,15.69701 -0.43183,1.49013 -23.92709,21.16369 -24.90491,20.8208 -0.40631,-0.14247 2.29434,3.73832 6.07728,8.72429 3.86947,5.1 7.05785,8.96791 7.00419,8.48912 -0.06,-0.53507 4.78619,-4.99701 12.50419,-11.52209 10.96984,-9.27431 12.33253,-10.26137 13.02592,-9.45097 0.696,0.81344 -0.4905,2.01739 -11.36497,11.50672 -7.65604,6.68086 -12.80359,10.79994 -13.28572,10.62354 -0.43015,-0.15737 2.51224,4.05553 6.62456,9.47562 4.21045,5.54942 7.67311,9.7642 7.60269,9.24549 -0.0787,-0.57962 4.88176,-5.36162 12.79391,-12.34439 11.23551,-9.91578 12.63554,-10.96875 13.38904,-10.08809 0.75646,0.88411 -0.45186,2.17303 -11.58175,12.32497 -7.84329,7.15413 -13.13116,11.56377 -13.64306,11.36829 -0.45669,-0.17439 2.76048,4.41536 7.24714,10.32883 4.59858,6.06099 8.37342,10.67123 8.28333,10.10714 -0.10066,-0.63028 4.97527,-5.77344 13.08594,-13.27184 11.50597,-10.6374 12.94473,-11.76434 13.76652,-10.80388 0.82515,0.96439 -0.40426,2.349 -11.79265,13.24692 -8.03376,7.68775 -13.46665,12.42512 -14.01189,12.20772 -0.48641,-0.19394 3.04487,4.82582 7.95941,11.30324 5.04296,6.64668 9.17522,11.7105 9.06193,11.0945 -0.12657,-0.6882 5.06481,-6.24134 13.37705,-14.32399 11.77908,-11.45375 13.25792,-12.66418 14.15771,-11.61255 0.90365,1.05613 -0.34563,2.54907 -11.99313,14.29163 -8.22583,8.29295 -13.80791,13.40213 -14.39069,13.15939 -0.51987,-0.21654 3.37265,5.29691 8.77934,12.42298 5.555,7.32157 10.09919,12.90903 9.95836,12.23326 -0.34196,-1.64088 26.36394,-29.05471 28.38325,-29.20431 0.87547,-0.0649 5.8294,4.8006 11.90306,11.71213 0,0 10.87924,12.38007 10.87924,12.38007 0,0 12.86084,-14.05821 12.86084,-14.05821 7.25182,-7.92704 13.09131,-13.6445 13.99003,-13.71109 2.07621,-0.15381 26.12256,24.22482 25.50949,25.97681 -0.25239,0.72127 5.456432,-5.73043 12.552948,-14.17916 6.953545,-8.27851 12.047326,-14.6756 11.445551,-14.36599 0,0 0,0 0,0 m -73.537789,-17.5644 c -0.29579,-0.70634 -0.20753,-1.90419 0.19466,-2.66204 0.41693,-0.78563 0.95948,-0.82952 1.2675,-0.10227 0.29725,0.70179 0.21275,1.89998 -0.18924,2.66251 -0.41859,0.79401 -0.9648,0.83758 -1.27292,0.1018 0,0 0,0 0,0 m 90.997719,-96.70178 c -1.377919,0.0828 -2.531946,-0.18204 -2.565652,-0.58781 -0.06812,-0.82018 4.559024,-1.70478 5.493265,-1.04973 1.031824,0.72347 -0.320504,1.48094 -2.927613,1.63754 0,0 0,0 0,0 m -65.920779,67.66036 c -0.31557,-0.64384 -0.27741,-1.74245 0.0834,-2.44144 0.37405,-0.72468 0.89969,-0.77095 1.22796,-0.10787 0.31674,0.63982 0.28214,1.73867 -0.0783,2.44179 -0.37529,0.73209 -0.90436,0.77813 -1.23304,0.10752 0,0 0,0 0,0 m 22.67933,-23.21997 c -0.33433,-0.24335 -5.27277,-4.31145 -10.86382,-8.94847 0,0 -9.86504,-8.18172 -9.86504,-8.18172 0,0 -10.72479,10.49928 -10.72479,10.49928 -9.97196,9.76226 -11.14468,10.7105 -12.1294,9.78659 -0.98064,-0.92007 -0.0326,-2.06968 9.77668,-11.89138 0,0 10.54456,-10.55789 10.54456,-10.55789 0,0 -8.96898,-7.66046 -8.96898,-7.66046 0,0 -8.64874,-7.38695 -8.64874,-7.38695 0,0 -10.56318,9.82743 -10.56318,9.82743 -9.71088,9.03448 -10.96348,10.00854 -11.83813,9.1879 -0.87667,-0.82252 0.16777,-1.98291 10.38982,-11.57363 6.50096,-6.09946 11.54803,-10.404 12.27833,-10.47986 0.70853,-0.0736 5.1871,3.13138 10.46676,7.5015 0,0 9.57666,7.92686 9.57666,7.92686 0,0 9.59566,-9.46976 9.59566,-9.46976 0,0 9.34505,-9.22243 9.34505,-9.22243 0,0 -9.62235,-7.61631 -9.62235,-7.61631 -8.39447,-6.64441 -9.15979,-7.43138 -8.17057,-8.3618 0.98653,-0.92789 1.97712,-0.35738 10.52979,6.08993 0,0 9.79828,7.3863 9.79828,7.3863 0,0 9.039294,-8.9207 9.039294,-8.9207 0,0 8.810024,-8.69443 8.810024,-8.69443 0,0 -9.725131,-7.03006 -9.725131,-7.03006 -8.409007,-6.07868 -9.267637,-6.87532 -8.363267,-7.72593 0.90761,-0.85367 1.98079,-0.26324 11.007439,6.08003 6.038787,4.24362 10.41485,7.73756 10.444911,8.35203 0.02922,0.59736 -3.899714,5.03817 -9.167764,10.35215 0,0 -9.477156,9.55977 -9.477156,9.55977 0,0 10.115946,7.91687 10.115946,7.91687 9.499749,7.43464 10.41682,8.34676 9.408981,9.40214 -1.010828,1.05851 -2.155931,0.379 -11.795386,-6.96967 0,0 -10.268011,-7.82786 -10.268011,-7.82786 0,0 -9.3581,9.29547 -9.3581,9.29547 0,0 -9.61034,9.54603 -9.61034,9.54603 0,0 9.99636,8.59788 9.99636,8.59788 9.00083,7.74161 10.29434,9.13391 9.52974,10.30194 -0.48647,0.74316 -1.15945,1.15285 -1.49413,0.90921 0,0 0,0 0,0 m -81.24684,-31.8626 c -0.56481,-0.18294 -0.98603,-0.60277 -0.9367,-0.9328 0.0492,-0.3296 5.1432,-5.12283 11.23247,-10.57368 9.66104,-8.64814 10.92922,-9.61333 11.72399,-8.9385 0.79383,0.67403 -0.31367,1.86668 -9.88932,10.62457 -8.51033,7.78356 -11.33934,10.07663 -12.13042,9.82039 0,0 -2e-5,2e-5 -2e-5,2e-5 m -16.77137,-15.74796 c -0.53304,-0.16648 -0.91837,-0.57278 -0.85695,-0.90268 0.0614,-0.32949 4.73226,-4.60979 10.30691,-9.44881 0,0 9.93535,-8.6243 9.93535,-8.6243 0,0 -7.48094,-6.52937 -7.48094,-6.52937 -6.48139,-5.65697 -7.11245,-6.39967 -6.14588,-7.19696 0.97019,-0.80026 1.83125,-0.25056 8.81986,5.65448 4.43177,3.74463 7.96959,7.19943 7.8934,7.72012 -0.0755,0.51574 -4.84201,5.0549 -10.67162,10.15555 -8.29867,7.26096 -11.054,9.40504 -11.80015,9.17199 0,0 2e-5,-2e-5 2e-5,-2e-5 m 40.82276,-36.15459 c -0.51965,-0.0409 -0.9191,-0.29505 -0.88804,-0.56443 0.0757,-0.65621 1.90486,-1.18106 2.50426,-0.7187 0.65101,0.50216 -0.44707,1.37526 -1.61622,1.28313 0,0 0,0 0,0 m -55.8803,21.76817 c -0.50842,-0.0496 -0.87223,-0.3247 -0.80885,-0.61114 0.15439,-0.69776 2.02512,-1.23553 2.56123,-0.73642 0.5823,0.54211 -0.60846,1.45909 -1.75238,1.34756 0,0 0,0 0,0 m 40.49593,-33.45714 c -0.19717,-0.38613 -0.0954,-1.06754 0.22544,-1.51426 0.33274,-0.46336 0.73569,-0.51211 0.94108,-0.11376 0.19807,0.38416 0.0983,1.06559 -0.22246,1.51428 -0.33385,0.46695 -0.73882,0.51569 -0.94406,0.11374 0,0 0,0 0,0 m -65.46009,52.43875 c -0.51287,-0.058 -0.86696,-0.35542 -0.78729,-0.66068 0.19409,-0.74357 2.11978,-1.29923 2.63658,-0.76097 0.56137,0.58468 -0.69532,1.55213 -1.84929,1.42165 0,0 0,0 0,0 m 85.07349,-70.12382 c -0.2098,-0.35868 -0.1385,-0.99584 0.15768,-1.41591 0.30721,-0.43574 0.70079,-0.48497 0.91917,-0.11488 0.21058,0.35689 0.14126,0.99404 -0.15483,1.41591 -0.30813,0.439 -0.70363,0.48824 -0.92202,0.11488 0,0 0,0 0,0 M 4.7554667,752.88951 c -0.6928902,0.16509 -6.1104574,-2.92703 -12.9829969,-7.3996 0,0 -11.3665158,-7.3972 -11.3665158,-7.3972 0,0 -8.398557,9.39038 -8.398557,9.39038 0,0 -8.630284,9.64947 -8.630284,9.64947 0,0 11.356794,7.97355 11.356794,7.97355 6.872386,4.82507 11.807153,8.76173 11.810467,9.43598 0.0031,0.63328 4.4774592,-4.17292 9.8549024,-10.57677 5.2829353,-6.29132 9.0055112,-11.23051 8.3561903,-11.07581 0,0 0,0 0,0 m 5.9036163,-29.49179 c -7.0481197,-4.19742 -12.53274,-7.1591 -12.3280744,-6.66507 0.2188695,0.52832 -2.8670505,4.5238 -7.5315368,9.73913 0,0 -8.1162118,9.07469 -8.1162118,9.07469 0,0 11.3664744,7.32166 11.3664744,7.32166 6.87174929,4.42641 11.8183443,8.04177 11.843438,8.66868 0.023565,0.58877 4.1790566,-3.84377 9.1567146,-9.75894 0,0 8.838033,-10.50262 8.838033,-10.50262 0,0 -13.228839,-7.87754 -13.228839,-7.87754 0,0 2e-6,1e-5 2e-6,1e-5 M -173.62161,903.57524 c 0,0 12.59919,-13.97706 12.59919,-13.97706 0,0 -10.1695,-11.97098 -10.1695,-11.97098 0,0 -9.7321,-11.45608 -9.7321,-11.45608 0,0 -12.36475,12.99424 -12.36475,12.99424 -7.44164,7.8205 -13.29932,13.35261 -14.05956,13.26592 -0.71185,-0.0812 3.47215,6.13722 9.44801,14.01737 6.14844,8.10771 11.29938,14.16275 11.28322,13.24252 -0.0172,-0.97924 5.40408,-7.69431 12.99549,-16.11593 0,0 0,0 0,0 M -14.593985,708.33203 c -6.501364,-3.87152 -11.578105,-6.60199 -11.405745,-6.1418 0.184306,0.4921 -2.925129,4.24341 -7.585957,9.14152 0,0 -8.103072,8.5156 -8.103072,8.5156 0,0 10.463294,6.73988 10.463294,6.73988 0,0 10.846381,6.98665 10.846381,6.98665 0,0 8.254513,-9.15724 8.254513,-9.15724 4.446673,-4.93297 8.2938652,-8.76181 8.6082195,-8.57338 0.3146738,0.18862 0.6933174,0.20853 0.8410701,0.0441 0.1476801,-0.16431 -5.275496,-3.59975 -11.9187036,-7.55536 0,0 0,0 0,0 m -44.919376,-26.79838 c -5.582818,-3.32404 -9.971823,-5.66584 -9.852141,-5.26302 0.127957,0.43069 -2.994061,3.76466 -7.611554,8.12068 0,0 -8.015808,7.5619 -8.015808,7.5619 0,0 8.952274,5.76657 8.952274,5.76657 0,0 9.254828,5.96145 9.254828,5.96145 0,0 8.200234,-8.09264 8.200234,-8.09264 4.424427,-4.36637 8.220085,-7.76352 8.488968,-7.60232 0.269136,0.16136 0.610073,0.17423 0.757345,0.0285 0.147204,-0.14563 -4.478552,-3.09032 -10.174146,-6.48116 0,0 0,0 0,0 m -221.134679,89.20586 c 0,0 10.97868,-9.03454 10.97868,-9.03454 0,0 -5.98528,-7.04555 -5.98528,-7.04555 -3.41952,-4.02526 -5.60287,-7.19217 -5.3427,-7.7324 0.24334,-0.5053 -4.92731,3.34445 -11.5796,8.62536 0,0 -12.35481,9.80784 -12.35481,9.80784 0,0 6.21365,8.16927 6.21365,8.16927 3.52159,4.62996 6.53898,8.03806 6.63528,7.48283 0.10254,-0.59124 4.86086,-4.86301 11.43478,-10.2728 0,0 0,-1e-5 0,-1e-5 m 148.74411,-132.40435 c 0,0 -7.54646,-4.50196 -7.54646,-4.50196 0,0 -8.4385,6.71704 -8.4385,6.71704 -4.72443,3.76038 -8.24074,6.7787 -7.75962,6.66347 0.51342,-0.12297 3.64739,1.57645 7.64353,4.15054 0,0 6.96702,4.48777 6.96702,4.48777 0,0 7.91427,-6.51278 7.91427,-6.51278 4.28098,-3.5229 7.9126,-6.27507 8.1158,-6.1532 0.20337,0.12197 0.48682,0.12543 0.6297,0.008 0.14282,-0.11774 -3.27407,-2.32213 -7.52574,-4.85853 0,0 0,0 0,0"
         style="fill:#251c58" />
      <path
         inkscape:connector-curvature="0"
         id="path3008"
         d="m -247.56626,842.94275 c 0,0 -58.50996,-77.4639 -58.50996,-77.4639 0,0 91.80389,-72.88672 91.80389,-72.88672 0,0 74.87128,-59.44326 74.87128,-59.44326 0,0 70.36622,41.87438 70.36622,41.87438 0,0 94.288637,56.11042 94.288637,56.11042 0,0 -80.698249,96.31726 -80.698249,96.31726 0,0 -107.190118,127.9366 -107.190118,127.9366 0,0 -84.9317,-112.44478 -84.9317,-112.44478 0,0 0,0 0,0 M -69.593448,675.54867 c 0,0 -69.859432,-41.68095 -69.859432,-41.68095 0,0 -74.36537,59.10997 -74.36537,59.10997 0,0 -91.05585,72.37655 -91.05585,72.37655 0,0 58.20403,76.74559 58.20403,76.74559 0,0 84.19891,111.02141 84.19891,111.02141 0,0 106.154326,-126.41104 106.154326,-126.41104 0,0 80.136002,-95.42782 80.136002,-95.42782 0,0 -93.412616,-55.73371 -93.412616,-55.73371 0,0 0,0 0,0"
         style="fill:#000001" />
    </g>
    <path
       style="fill:url(#linearGradient4060);fill-opacity:1;stroke:none;filter:url(#filter4074)"
       d="m 232.08001,825.22298 53.21429,2.14286 124.28571,-39.64286 -11.42857,-36.07143 -122.14285,40.35715 z"
       id="path4052"
       inkscape:connector-curvature="0" />
    <g
       id="g3885"
       transform="translate(-241.13428,-66.067761)">
      <path
         sodipodi:nodetypes="ccscc"
         transform="translate(0,540.36218)"
         inkscape:connector-curvature="0"
         id="path3033"
         d="m 501.03566,332.19285 31.31473,-28.03174 c -23.92082,-1.03327 -35.24566,-17.59504 -39.39595,-27.02158 -0.40704,-0.92451 -9.84898,41.92133 -9.84898,41.92133 z"
         style="fill:url(#radialGradient3892);fill-opacity:1;stroke:#000000;stroke-width:1px;stroke-linecap:butt;stroke-linejoin:miter;stroke-opacity:1" />
      <path
         sodipodi:nodetypes="cccc"
         transform="translate(0,540.36218)"
         inkscape:connector-curvature="0"
         id="path3031"
         d="m 477.80215,348.35529 23.23351,-16.16244 c -2.19249,-9.15134 -9.32628,-13.52426 -17.93021,-13.38453 z"
         style="fill:url(#radialGradient3894);fill-opacity:1;stroke:#000000;stroke-width:1px;stroke-linecap:butt;stroke-linejoin:miter;stroke-opacity:1" />
      <path
         sodipodi:nodetypes="ccccc"
         transform="translate(0,540.36218)"
         inkscape:connector-curvature="0"
         id="path3821"
         d="M 532.35039,304.41365 659.62961,106.42375 614.67783,78.644556 492.70191,277.13953 c 7.13694,16.32854 18.42549,27.71469 39.64848,27.27412 z"
         style="fill:url(#linearGradient3896);fill-opacity:1;stroke:#000000;stroke-width:1px;stroke-linecap:butt;stroke-linejoin:miter;stroke-opacity:1" />
      <path
         inkscape:transform-center-y="9.9666305"
         inkscape:transform-center-x="-19.960115"
         transform="matrix(1.025178,0.57126486,-0.59342129,0.98690121,18.286942,149.66128)"
         d="m 687.40879,103.3933 c 0,6.55523 -10.17586,11.8693 -22.72843,11.8693 -12.55257,0 -22.72843,-5.31407 -22.72843,-11.8693 0,-6.555226 10.17586,-11.869289 22.72843,-11.869289 12.55257,0 22.72843,5.314063 22.72843,11.869289 z"
         sodipodi:ry="11.869292"
         sodipodi:rx="22.728434"
         sodipodi:cy="103.3933"
         sodipodi:cx="664.68036"
         id="path3839"
         style="fill:url(#linearGradient3898);fill-opacity:1;stroke:#000000;stroke-opacity:1"
         sodipodi:type="arc" />
      <path
         inkscape:transform-center-y="3.3512606"
         inkscape:transform-center-x="-6.7115556"
         transform="matrix(0.34471474,0.19208705,-0.19953712,0.33184422,429.63009,467.69664)"
         d="m 687.40879,103.3933 c 0,6.55523 -10.17586,11.8693 -22.72843,11.8693 -12.55257,0 -22.72843,-5.31407 -22.72843,-11.8693 0,-6.555226 10.17586,-11.869289 22.72843,-11.869289 12.55257,0 22.72843,5.314063 22.72843,11.869289 z"
         sodipodi:ry="11.869292"
         sodipodi:rx="22.728434"
         sodipodi:cy="103.3933"
         sodipodi:cx="664.68036"
         id="path3839-9"
         style="fill:#000000;fill-opacity:1;stroke:none"
         sodipodi:type="arc" />
    </g>
  </g>
</svg>
